<svg id="svg" version="1.1" xmlns="http://www.w3.org/2000/svg" xmlns:xlink="http://www.w3.org/1999/xlink" width="400" height="150.76923076923077" viewBox="0, 0, 400,150.76923076923077"><g id="svgg"><path id="path0" d="M258.094 108.149 C 258.043 108.232,258.020 116.688,258.042 126.941 L 258.083 145.583 321.958 145.625 L 385.833 145.667 385.833 126.834 L 385.833 108.000 322.010 108.000 C 284.548 108.000,258.148 108.062,258.094 108.149 M318.959 117.011 C 319.257 117.114,319.500 117.258,319.500 117.329 C 319.500 117.401,319.706 117.546,319.958 117.652 C 320.758 117.988,321.524 119.382,321.681 120.789 C 321.898 122.718,321.808 122.833,320.091 122.833 C 318.512 122.833,318.659 122.957,318.413 121.417 C 318.028 119.007,315.500 119.545,315.500 122.036 C 315.500 123.644,315.488 123.625,318.432 126.684 C 321.400 129.766,321.736 130.437,321.737 133.272 C 321.738 135.711,321.299 136.829,319.965 137.790 C 317.882 139.290,313.479 138.628,312.489 136.667 C 311.038 133.791,311.362 132.000,313.333 132.000 C 314.672 132.000,314.913 132.200,315.049 133.424 C 315.355 136.165,318.333 136.090,318.333 133.342 C 318.333 132.077,317.834 131.303,315.452 128.884 C 312.917 126.309,312.556 125.799,312.055 124.092 C 310.618 119.192,314.321 115.394,318.959 117.011 M297.897 116.992 C 298.198 117.107,298.337 117.306,298.392 117.701 C 298.434 118.003,298.595 119.000,298.750 119.917 C 299.027 121.549,299.404 124.000,299.916 127.500 C 300.057 128.462,300.287 129.780,300.427 130.428 C 300.567 131.077,300.747 132.239,300.828 133.012 C 300.909 133.784,301.136 135.150,301.331 136.046 C 301.826 138.315,301.815 138.333,300.015 138.333 C 298.114 138.333,297.667 137.773,297.667 135.390 C 297.667 134.665,297.267 134.500,295.508 134.500 C 293.711 134.500,293.167 135.135,293.167 137.227 C 293.167 138.291,293.106 138.333,291.586 138.333 C 289.689 138.333,289.643 138.186,290.398 134.455 C 290.532 133.792,290.691 132.800,290.750 132.250 C 290.809 131.700,291.003 130.500,291.181 129.583 C 291.359 128.667,291.576 127.354,291.663 126.667 C 291.853 125.168,292.257 122.611,292.610 120.667 C 292.751 119.888,292.904 118.800,292.949 118.250 C 292.995 117.700,293.109 117.156,293.203 117.042 C 293.411 116.788,297.254 116.748,297.897 116.992 M336.011 117.006 C 336.439 117.235,336.526 137.800,336.100 138.153 C 335.950 138.277,335.336 138.329,334.391 138.298 L 332.917 138.250 332.873 127.750 C 332.833 118.027,332.851 117.235,333.113 117.042 C 333.458 116.789,335.557 116.763,336.011 117.006 M355.296 117.042 C 355.390 117.156,355.502 117.662,355.545 118.167 C 355.624 119.101,355.873 120.655,356.588 124.667 C 356.808 125.904,357.031 127.364,357.083 127.910 C 357.135 128.457,357.283 129.357,357.412 129.910 C 357.541 130.464,357.769 131.779,357.919 132.833 C 358.068 133.887,358.293 135.460,358.419 136.328 C 358.707 138.319,358.696 138.333,356.917 138.333 C 355.184 138.333,355.239 138.397,354.808 135.917 C 354.563 134.510,354.547 134.500,352.667 134.500 C 351.563 134.500,350.989 134.567,350.879 134.708 C 350.673 134.974,350.166 137.107,350.166 137.705 C 350.167 138.269,349.844 138.369,348.247 138.300 L 347.083 138.250 347.099 137.333 C 347.107 136.829,347.203 136.004,347.312 135.500 C 347.420 134.996,347.580 133.920,347.667 133.110 C 347.754 132.300,347.935 131.175,348.069 130.610 C 348.203 130.045,348.403 128.796,348.515 127.833 C 348.626 126.871,348.777 125.964,348.850 125.818 C 348.924 125.672,349.102 124.593,349.246 123.420 C 349.391 122.246,349.548 121.223,349.596 121.146 C 349.667 121.031,350.152 117.730,350.163 117.286 C 350.175 116.836,354.942 116.609,355.296 117.042 M295.295 124.110 C 295.045 124.920,294.760 126.347,294.662 127.281 C 294.564 128.214,294.384 129.452,294.262 130.031 C 293.993 131.315,294.026 131.356,295.451 131.458 C 297.073 131.574,297.121 131.492,296.758 129.207 C 296.601 128.222,296.398 126.892,296.306 126.250 C 296.215 125.608,296.052 124.533,295.945 123.860 L 295.750 122.636 295.295 124.110 M352.605 122.965 C 352.423 123.259,351.988 125.414,351.806 126.917 C 351.718 127.650,351.539 128.886,351.410 129.663 C 351.131 131.343,351.153 131.379,352.549 131.468 C 354.044 131.563,354.083 131.489,353.772 129.137 C 353.072 123.824,352.838 122.588,352.605 122.965 M279.161 135.489 C 279.347 135.838,279.397 137.640,279.232 138.070 C 279.104 138.402,276.357 138.457,276.033 138.133 C 275.701 137.801,275.773 135.666,276.125 135.399 C 276.623 135.021,278.947 135.090,279.161 135.489 " stroke="none" fill="#ec646c" fill-rule="evenodd"></path><path id="path1" d="M315.379 116.832 C 312.539 117.435,311.054 120.679,312.055 124.092 C 312.556 125.799,312.917 126.309,315.452 128.884 C 317.834 131.303,318.333 132.077,318.333 133.342 C 318.333 136.090,315.355 136.165,315.049 133.424 C 314.913 132.200,314.672 132.000,313.333 132.000 C 311.362 132.000,311.038 133.791,312.489 136.667 C 313.479 138.628,317.882 139.290,319.965 137.790 C 321.299 136.829,321.738 135.711,321.737 133.272 C 321.736 130.437,321.400 129.766,318.432 126.684 C 315.488 123.625,315.500 123.644,315.500 122.036 C 315.500 119.545,318.028 119.007,318.413 121.417 C 318.659 122.957,318.512 122.833,320.091 122.833 C 321.808 122.833,321.898 122.718,321.681 120.789 C 321.524 119.382,320.758 117.988,319.958 117.652 C 319.706 117.546,319.500 117.401,319.500 117.329 C 319.500 116.905,316.652 116.561,315.379 116.832 M293.203 117.042 C 293.109 117.156,292.995 117.700,292.949 118.250 C 292.904 118.800,292.751 119.888,292.610 120.667 C 292.257 122.611,291.853 125.168,291.663 126.667 C 291.576 127.354,291.359 128.667,291.181 129.583 C 291.003 130.500,290.809 131.700,290.750 132.250 C 290.691 132.800,290.532 133.792,290.398 134.455 C 289.643 138.186,289.689 138.333,291.586 138.333 C 293.106 138.333,293.167 138.291,293.167 137.227 C 293.167 135.135,293.711 134.500,295.508 134.500 C 297.267 134.500,297.667 134.665,297.667 135.390 C 297.667 137.773,298.114 138.333,300.015 138.333 C 301.815 138.333,301.826 138.315,301.331 136.046 C 301.136 135.150,300.909 133.784,300.828 133.012 C 300.747 132.239,300.567 131.077,300.427 130.428 C 300.287 129.780,300.057 128.462,299.916 127.500 C 299.404 124.000,299.027 121.549,298.750 119.917 C 298.595 119.000,298.434 118.003,298.392 117.701 C 298.337 117.306,298.198 117.107,297.897 116.992 C 297.254 116.748,293.411 116.788,293.203 117.042 M333.113 117.042 C 332.851 117.235,332.833 118.027,332.873 127.750 L 332.917 138.250 334.391 138.298 C 335.336 138.329,335.950 138.277,336.100 138.153 C 336.526 137.800,336.439 117.235,336.011 117.006 C 335.557 116.763,333.458 116.789,333.113 117.042 M350.542 117.005 C 350.335 117.088,350.165 117.215,350.163 117.286 C 350.152 117.730,349.667 121.031,349.596 121.146 C 349.548 121.223,349.391 122.246,349.246 123.420 C 349.102 124.593,348.924 125.672,348.850 125.818 C 348.777 125.964,348.626 126.871,348.515 127.833 C 348.403 128.796,348.203 130.045,348.069 130.610 C 347.935 131.175,347.754 132.300,347.667 133.110 C 347.580 133.920,347.420 134.996,347.312 135.500 C 347.203 136.004,347.107 136.829,347.099 137.333 L 347.083 138.250 348.247 138.300 C 349.844 138.369,350.167 138.269,350.166 137.705 C 350.166 137.107,350.673 134.974,350.879 134.708 C 350.989 134.567,351.563 134.500,352.667 134.500 C 354.547 134.500,354.563 134.510,354.808 135.917 C 355.239 138.397,355.184 138.333,356.917 138.333 C 358.696 138.333,358.707 138.319,358.419 136.328 C 358.293 135.460,358.068 133.887,357.919 132.833 C 357.769 131.779,357.541 130.464,357.412 129.910 C 357.283 129.357,357.135 128.457,357.083 127.910 C 357.031 127.364,356.808 125.904,356.588 124.667 C 355.873 120.655,355.624 119.101,355.545 118.167 C 355.502 117.662,355.390 117.156,355.296 117.042 C 355.094 116.794,351.142 116.764,350.542 117.005 M296.306 126.250 C 296.398 126.892,296.601 128.222,296.758 129.207 C 297.121 131.492,297.073 131.574,295.451 131.458 C 294.026 131.356,293.993 131.315,294.262 130.031 C 294.384 129.452,294.564 128.214,294.662 127.281 C 294.760 126.347,295.045 124.920,295.295 124.110 L 295.750 122.636 295.945 123.860 C 296.052 124.533,296.215 125.608,296.306 126.250 M353.243 125.333 C 354.196 131.841,354.227 131.574,352.549 131.468 C 351.153 131.379,351.131 131.343,351.410 129.663 C 351.539 128.886,351.718 127.650,351.806 126.917 C 351.988 125.414,352.423 123.259,352.605 122.965 C 352.788 122.668,352.928 123.189,353.243 125.333 M276.125 135.399 C 275.773 135.666,275.701 137.801,276.033 138.133 C 276.357 138.457,279.104 138.402,279.232 138.070 C 279.397 137.640,279.347 135.838,279.161 135.489 C 278.947 135.090,276.623 135.021,276.125 135.399 " stroke="none" fill="#fbf7f6" fill-rule="evenodd"></path><path id="path2" d="M101.278 5.111 C 101.217 5.172,101.167 5.360,101.167 5.528 C 101.167 5.816,100.929 5.833,96.984 5.833 C 92.958 5.833,92.799 5.846,92.716 6.163 C 92.635 6.474,92.458 6.495,89.607 6.538 C 86.614 6.583,86.583 6.587,86.530 6.958 C 86.477 7.329,86.448 7.333,83.822 7.333 C 81.278 7.333,81.167 7.347,81.167 7.667 C 81.167 7.983,81.056 8.000,79.021 8.000 C 76.423 8.000,75.833 8.096,75.833 8.516 C 75.833 8.798,75.642 8.828,73.542 8.870 C 71.308 8.915,71.249 8.926,71.197 9.292 C 71.145 9.656,71.087 9.667,69.238 9.667 C 67.455 9.667,67.333 9.688,67.333 9.995 C 67.333 10.298,67.196 10.326,65.458 10.370 C 63.657 10.415,63.581 10.431,63.530 10.792 C 63.479 11.149,63.406 11.167,61.973 11.167 C 60.629 11.167,60.460 11.201,60.385 11.487 C 60.311 11.769,60.082 11.822,58.488 11.925 C 56.937 12.025,56.662 12.086,56.579 12.348 C 56.496 12.609,56.267 12.661,55.032 12.702 C 53.673 12.747,53.580 12.773,53.530 13.125 C 53.481 13.473,53.393 13.500,52.322 13.500 C 51.285 13.500,51.167 13.534,51.167 13.827 C 51.167 14.123,51.030 14.158,49.708 14.202 C 48.340 14.247,48.247 14.273,48.197 14.625 C 48.147 14.973,48.059 15.000,46.988 15.000 C 45.867 15.000,45.833 15.012,45.833 15.417 C 45.833 15.831,45.823 15.833,44.318 15.833 C 42.942 15.833,42.794 15.864,42.715 16.167 C 42.640 16.453,42.488 16.500,41.643 16.500 C 40.746 16.500,40.644 16.537,40.500 16.917 C 40.353 17.302,40.261 17.333,39.254 17.333 C 38.278 17.333,38.167 17.367,38.167 17.667 C 38.167 17.931,38.055 18.000,37.625 18.002 C 36.502 18.006,35.833 18.196,35.833 18.513 C 35.833 18.755,35.677 18.825,35.042 18.866 C 34.366 18.909,34.242 18.972,34.197 19.292 C 34.148 19.636,34.056 19.667,33.072 19.667 C 32.111 19.667,32.000 19.701,32.000 20.000 C 32.000 20.292,31.889 20.333,31.097 20.333 C 29.979 20.333,29.667 20.447,29.667 20.851 C 29.667 21.114,29.541 21.167,28.917 21.167 C 28.295 21.167,28.167 21.220,28.167 21.478 C 28.167 21.742,27.988 21.808,27.000 21.905 C 25.996 22.004,25.833 22.065,25.833 22.343 C 25.833 22.614,25.715 22.667,25.101 22.667 C 24.460 22.667,24.357 22.718,24.265 23.083 C 24.173 23.450,24.071 23.500,23.413 23.500 C 22.778 23.500,22.667 23.550,22.667 23.833 C 22.667 24.117,22.556 24.167,21.917 24.167 C 21.228 24.167,21.167 24.201,21.167 24.583 C 21.167 24.985,21.128 25.000,20.087 25.000 C 19.073 25.000,19.000 25.026,18.902 25.417 C 18.812 25.774,18.702 25.833,18.133 25.833 C 17.615 25.833,17.450 25.905,17.384 26.158 C 17.320 26.402,17.128 26.495,16.608 26.533 C 16.037 26.575,15.907 26.648,15.863 26.958 C 15.817 27.283,15.711 27.333,15.072 27.333 C 14.459 27.333,14.333 27.387,14.333 27.648 C 14.333 27.894,14.166 27.987,13.564 28.077 C 13.004 28.161,12.773 28.280,12.712 28.513 C 12.665 28.689,12.487 28.833,12.314 28.833 C 12.090 28.833,12.000 28.953,12.000 29.250 C 12.000 29.639,11.944 29.667,11.167 29.667 C 10.453 29.667,10.333 29.713,10.333 29.990 C 10.333 30.252,10.198 30.324,9.625 30.365 C 9.036 30.408,8.908 30.480,8.863 30.792 C 8.830 31.027,8.695 31.167,8.500 31.167 C 8.329 31.167,8.144 31.309,8.089 31.483 C 8.025 31.684,7.764 31.840,7.370 31.914 C 6.648 32.050,6.506 32.221,6.503 32.958 C 6.501 33.388,6.431 33.500,6.167 33.500 C 5.948 33.500,5.833 33.611,5.833 33.822 C 5.833 34.029,5.699 34.163,5.458 34.197 C 5.118 34.245,5.079 34.353,5.034 35.375 C 4.992 36.340,4.941 36.500,4.677 36.500 C 4.206 36.500,4.166 36.787,4.169 40.222 C 4.171 43.737,4.227 44.167,4.675 44.167 C 4.861 44.167,4.997 44.310,5.030 44.542 C 5.082 44.905,5.148 44.918,7.211 44.963 L 9.338 45.010 9.498 44.588 C 9.634 44.231,9.764 44.167,10.345 44.167 C 10.884 44.167,11.049 44.097,11.116 43.843 C 11.163 43.665,11.362 43.496,11.559 43.468 C 11.783 43.436,11.937 43.276,11.970 43.042 C 12.016 42.717,12.123 42.667,12.762 42.667 C 13.438 42.667,13.500 42.632,13.500 42.250 C 13.500 41.867,13.561 41.833,14.250 41.833 C 14.889 41.833,15.000 41.784,15.000 41.500 C 15.000 41.216,15.111 41.167,15.750 41.167 C 16.439 41.167,16.500 41.133,16.500 40.750 C 16.500 40.367,16.561 40.333,17.250 40.333 C 17.882 40.333,18.000 40.282,18.000 40.009 C 18.000 39.741,18.136 39.676,18.792 39.634 C 19.467 39.591,19.591 39.528,19.637 39.208 C 19.683 38.884,19.789 38.833,20.428 38.833 C 21.105 38.833,21.167 38.798,21.167 38.417 C 21.167 38.034,21.228 38.000,21.917 38.000 C 22.556 38.000,22.667 37.951,22.667 37.667 C 22.667 37.377,22.778 37.333,23.511 37.333 C 24.440 37.333,25.000 37.115,25.000 36.754 C 25.000 36.597,25.235 36.502,25.708 36.468 C 26.297 36.425,26.426 36.353,26.470 36.042 C 26.516 35.717,26.623 35.667,27.262 35.667 C 27.882 35.667,28.000 35.615,28.000 35.342 C 28.000 35.074,28.136 35.010,28.792 34.967 C 29.467 34.924,29.591 34.862,29.637 34.542 C 29.686 34.197,29.777 34.167,30.762 34.167 C 31.722 34.167,31.833 34.132,31.833 33.833 C 31.833 33.565,31.944 33.500,32.403 33.500 C 33.188 33.500,33.500 33.353,33.500 32.982 C 33.500 32.708,33.630 32.667,34.504 32.667 C 35.422 32.667,35.522 32.631,35.667 32.250 C 35.803 31.890,35.928 31.833,36.579 31.833 C 37.222 31.833,37.333 31.784,37.333 31.500 C 37.333 31.204,37.444 31.167,38.337 31.167 C 39.255 31.167,39.355 31.131,39.500 30.750 C 39.637 30.390,39.761 30.333,40.413 30.333 C 41.045 30.333,41.167 30.282,41.167 30.014 C 41.167 29.734,41.314 29.687,42.334 29.639 L 43.501 29.583 43.500 30.375 C 43.500 31.041,43.450 31.167,43.184 31.167 C 42.739 31.167,42.667 31.472,42.667 33.347 C 42.667 34.889,42.644 35.000,42.333 35.000 C 42.025 35.000,42.000 35.111,42.000 36.482 C 42.000 37.924,41.989 37.967,41.583 38.068 C 41.178 38.170,41.167 38.213,41.167 39.658 C 41.167 41.072,41.149 41.146,40.792 41.197 C 40.440 41.247,40.414 41.340,40.369 42.691 C 40.327 43.960,40.282 44.141,39.994 44.217 C 39.699 44.294,39.667 44.452,39.667 45.818 C 39.667 47.323,39.664 47.333,39.250 47.333 C 38.836 47.333,38.833 47.344,38.833 48.833 C 38.833 50.186,38.803 50.333,38.523 50.333 C 38.181 50.333,38.000 51.150,38.000 52.690 C 38.000 53.389,37.954 53.500,37.667 53.500 C 37.365 53.500,37.333 53.611,37.333 54.667 C 37.333 55.700,37.297 55.833,37.018 55.833 C 36.591 55.833,36.500 56.144,36.500 57.597 C 36.500 58.722,36.470 58.833,36.167 58.833 C 35.858 58.833,35.833 58.944,35.833 60.322 C 35.833 61.738,35.815 61.813,35.458 61.863 C 35.104 61.914,35.081 62.003,35.035 63.458 C 34.993 64.832,34.954 65.000,34.678 65.000 C 34.259 65.000,34.167 65.315,34.167 66.744 C 34.167 67.821,34.128 67.971,33.833 68.048 C 33.525 68.129,33.500 68.276,33.500 69.973 C 33.500 71.751,33.488 71.812,33.125 71.863 C 32.765 71.915,32.748 71.991,32.703 73.792 C 32.659 75.529,32.632 75.667,32.328 75.667 C 32.021 75.667,32.000 75.788,32.000 77.580 C 32.000 79.482,31.998 79.494,31.583 79.598 L 31.167 79.703 31.167 82.340 C 31.167 84.948,31.163 84.977,30.792 85.030 L 30.417 85.083 30.417 89.167 L 30.417 93.250 30.792 93.303 C 31.139 93.353,31.167 93.441,31.167 94.512 C 31.167 95.633,31.179 95.667,31.583 95.667 C 31.966 95.667,32.000 95.728,32.000 96.417 C 32.000 97.056,32.049 97.167,32.333 97.167 C 32.617 97.167,32.667 97.278,32.667 97.913 C 32.667 98.571,32.716 98.673,33.083 98.765 C 33.344 98.830,33.500 98.987,33.500 99.185 C 33.500 99.385,33.617 99.500,33.822 99.500 C 34.029 99.500,34.163 99.634,34.197 99.875 C 34.231 100.116,34.384 100.269,34.625 100.303 C 34.857 100.336,35.000 100.472,35.000 100.660 C 35.000 101.006,35.316 101.167,35.994 101.167 C 36.321 101.167,36.487 101.267,36.548 101.500 C 36.681 102.007,40.333 102.016,40.333 101.510 C 40.333 101.248,40.469 101.176,41.042 101.135 C 41.589 101.095,41.787 100.998,41.915 100.708 C 42.005 100.502,42.211 100.333,42.373 100.333 C 42.575 100.333,42.667 100.204,42.667 99.917 C 42.667 99.609,42.755 99.500,43.004 99.500 C 43.211 99.500,43.403 99.338,43.500 99.083 C 43.587 98.854,43.773 98.667,43.913 98.667 C 44.103 98.667,44.167 98.478,44.167 97.917 C 44.167 97.228,44.201 97.167,44.583 97.167 C 44.966 97.167,45.000 97.106,45.000 96.417 C 45.000 95.728,45.034 95.667,45.417 95.667 C 45.799 95.667,45.833 95.606,45.833 94.917 C 45.833 94.278,45.883 94.167,46.167 94.167 C 46.450 94.167,46.500 94.056,46.500 93.428 C 46.500 92.789,46.551 92.683,46.875 92.637 C 47.216 92.588,47.255 92.481,47.299 91.458 C 47.343 90.470,47.388 90.333,47.674 90.333 C 47.982 90.333,48.000 90.204,48.000 88.000 C 48.000 85.778,47.984 85.667,47.667 85.667 C 47.444 85.667,47.333 85.556,47.333 85.333 C 47.333 85.032,47.222 85.000,46.167 85.000 C 45.111 85.000,45.000 85.032,45.000 85.333 C 45.000 85.567,44.888 85.667,44.625 85.669 C 43.939 85.673,43.500 85.868,43.500 86.167 C 43.500 86.348,43.341 86.492,43.083 86.541 L 42.667 86.620 42.667 84.227 L 42.667 81.833 43.083 81.833 L 43.500 81.833 43.500 79.917 C 43.500 78.111,43.519 78.000,43.833 78.000 C 44.147 78.000,44.167 77.889,44.167 76.083 L 44.167 74.167 44.583 74.167 C 44.997 74.167,45.000 74.155,45.000 72.678 C 45.000 71.262,45.018 71.187,45.375 71.137 C 45.715 71.088,45.755 70.980,45.799 69.976 C 45.840 69.040,45.898 68.855,46.174 68.783 C 46.454 68.710,46.500 68.550,46.500 67.638 C 46.500 66.700,46.543 66.560,46.875 66.415 C 47.214 66.266,47.255 66.118,47.298 64.875 C 47.342 63.637,47.379 63.500,47.673 63.500 C 47.966 63.500,48.000 63.381,48.000 62.345 C 48.000 61.274,48.027 61.186,48.375 61.137 C 48.715 61.088,48.755 60.980,48.799 59.969 C 48.843 58.965,48.884 58.849,49.216 58.802 C 49.547 58.755,49.588 58.640,49.633 57.625 C 49.676 56.637,49.721 56.500,50.008 56.500 C 50.281 56.500,50.333 56.383,50.333 55.777 C 50.333 55.167,50.399 55.024,50.750 54.864 C 51.127 54.692,51.167 54.579,51.167 53.670 C 51.167 52.797,51.208 52.667,51.482 52.667 C 51.887 52.667,52.000 52.354,52.000 51.236 C 52.000 50.444,52.041 50.333,52.333 50.333 C 52.635 50.333,52.667 50.222,52.667 49.178 C 52.667 48.107,52.694 48.019,53.042 47.970 C 53.382 47.922,53.421 47.814,53.466 46.792 C 53.509 45.803,53.555 45.667,53.841 45.667 C 54.115 45.667,54.167 45.550,54.167 44.928 C 54.167 44.289,54.217 44.183,54.542 44.137 C 54.882 44.088,54.921 43.981,54.966 42.958 C 55.008 41.993,55.059 41.833,55.323 41.833 C 55.712 41.833,55.833 41.516,55.833 40.498 C 55.833 39.836,55.894 39.670,56.167 39.583 C 56.454 39.492,56.500 39.331,56.500 38.424 C 56.500 37.438,56.527 37.363,56.917 37.265 C 57.322 37.163,57.333 37.121,57.333 35.663 C 57.333 34.278,57.358 34.167,57.667 34.167 C 57.986 34.167,58.000 34.056,58.000 31.500 C 58.000 28.944,57.986 28.833,57.667 28.833 C 57.409 28.833,57.333 28.722,57.333 28.347 C 57.333 27.644,57.175 27.333,56.816 27.333 C 56.617 27.333,56.500 27.216,56.500 27.018 C 56.500 26.662,56.190 26.500,55.506 26.500 C 55.012 26.500,54.849 26.159,54.967 25.375 C 55.019 25.028,55.108 25.000,56.178 25.000 C 57.299 25.000,57.333 24.988,57.333 24.583 C 57.333 24.170,57.344 24.167,58.833 24.167 C 60.222 24.167,60.333 24.142,60.333 23.833 C 60.333 23.533,60.445 23.500,61.458 23.498 C 62.860 23.495,63.295 23.382,63.420 22.988 C 63.504 22.724,63.727 22.672,64.968 22.631 C 66.327 22.586,66.420 22.560,66.470 22.208 C 66.521 21.852,66.596 21.833,67.992 21.833 C 69.321 21.833,69.469 21.802,69.548 21.500 C 69.627 21.197,69.776 21.167,71.151 21.167 C 72.657 21.167,72.667 21.164,72.667 20.750 L 72.667 20.333 74.583 20.333 C 76.378 20.333,76.500 20.313,76.500 20.005 C 76.500 19.702,76.637 19.674,78.375 19.630 C 80.169 19.585,80.252 19.567,80.303 19.213 C 80.354 18.854,80.422 18.841,82.636 18.796 C 84.858 18.751,84.918 18.740,84.970 18.375 C 85.022 18.007,85.064 18.000,87.345 18.000 C 89.547 18.000,89.667 17.983,89.667 17.670 C 89.667 17.356,89.805 17.339,92.708 17.295 C 95.720 17.250,95.751 17.246,95.803 16.875 L 95.857 16.500 100.012 16.500 C 104.056 16.500,104.167 16.491,104.167 16.167 C 104.167 15.837,104.278 15.833,115.314 15.833 C 126.321 15.833,126.462 15.838,126.548 16.167 C 126.632 16.488,126.776 16.500,130.383 16.500 L 134.131 16.500 134.235 16.917 L 134.340 17.333 136.712 17.331 C 139.779 17.327,139.572 17.518,139.638 14.644 C 139.704 11.808,139.615 11.167,139.159 11.167 C 138.884 11.167,138.833 11.050,138.833 10.417 C 138.833 9.728,138.799 9.667,138.417 9.667 C 138.083 9.667,138.000 9.583,138.000 9.250 C 138.000 8.944,137.911 8.833,137.667 8.833 C 137.409 8.833,137.333 8.722,137.333 8.347 C 137.333 7.644,137.175 7.333,136.816 7.333 C 136.617 7.333,136.500 7.216,136.500 7.018 C 136.500 6.659,136.190 6.500,135.486 6.500 C 135.111 6.500,135.000 6.424,135.000 6.167 C 135.000 5.865,134.889 5.833,133.833 5.833 C 132.700 5.833,132.667 5.821,132.667 5.417 L 132.667 5.000 117.028 5.000 C 108.426 5.000,101.339 5.050,101.278 5.111 M336.639 16.912 C 336.463 17.298,336.358 17.333,335.401 17.333 C 334.512 17.333,334.340 17.382,334.253 17.657 C 334.176 17.898,333.970 17.995,333.450 18.032 C 332.870 18.075,332.741 18.147,332.697 18.458 C 332.651 18.783,332.544 18.833,331.905 18.833 C 331.229 18.833,331.167 18.868,331.167 19.250 C 331.167 19.633,331.106 19.667,330.417 19.667 C 329.800 19.667,329.667 19.721,329.667 19.973 C 329.667 20.142,329.479 20.365,329.250 20.470 C 328.906 20.626,328.833 20.777,328.833 21.330 C 328.833 21.871,328.774 22.000,328.525 22.000 C 328.163 22.000,328.002 23.662,328.001 27.439 C 328.000 29.487,327.979 29.633,327.667 29.715 C 327.402 29.784,327.333 29.942,327.333 30.484 L 327.333 31.167 322.011 31.167 C 316.882 31.167,316.685 31.178,316.586 31.491 C 316.529 31.670,316.337 31.863,316.158 31.919 C 315.654 32.079,315.653 38.000,316.158 38.000 C 316.426 38.000,316.490 38.136,316.533 38.792 C 316.576 39.467,316.638 39.591,316.958 39.637 C 317.199 39.671,317.333 39.805,317.333 40.012 C 317.333 40.221,317.448 40.333,317.663 40.333 C 317.877 40.333,318.031 40.481,318.098 40.750 C 318.164 41.011,318.321 41.167,318.518 41.167 C 318.722 41.167,318.833 41.284,318.833 41.500 C 318.833 41.742,318.944 41.833,319.238 41.833 C 319.532 41.833,319.658 41.937,319.697 42.208 C 319.745 42.549,319.853 42.588,320.864 42.632 C 321.869 42.677,321.984 42.718,322.031 43.049 C 322.078 43.381,322.193 43.421,323.226 43.466 C 324.312 43.514,324.363 43.534,324.270 43.883 C 324.215 44.085,324.170 44.756,324.169 45.375 C 324.167 46.388,324.134 46.500,323.833 46.500 C 323.532 46.500,323.500 46.611,323.500 47.655 C 323.500 48.726,323.473 48.814,323.125 48.863 C 322.784 48.912,322.745 49.019,322.701 50.042 C 322.657 51.030,322.612 51.167,322.326 51.167 C 322.034 51.167,322.000 51.287,322.000 52.322 C 322.000 53.393,321.973 53.481,321.625 53.530 C 321.284 53.578,321.245 53.686,321.201 54.708 C 321.159 55.671,321.107 55.833,320.845 55.833 C 320.493 55.833,320.339 56.271,320.336 57.280 C 320.334 57.830,320.263 58.000,320.000 58.083 C 319.699 58.179,319.667 58.336,319.667 59.678 C 319.667 61.155,319.663 61.167,319.250 61.167 C 318.845 61.167,318.833 61.200,318.833 62.333 C 318.833 63.362,318.796 63.500,318.522 63.500 C 318.205 63.500,318.006 64.149,318.002 65.197 C 318.001 65.497,317.890 65.679,317.667 65.750 C 317.379 65.841,317.333 66.002,317.333 66.928 C 317.333 67.758,317.278 68.000,317.089 68.000 C 316.680 68.000,316.500 68.583,316.500 69.906 C 316.500 71.056,316.471 71.167,316.167 71.167 C 315.865 71.167,315.833 71.278,315.833 72.322 C 315.833 73.393,315.806 73.481,315.458 73.530 C 315.107 73.580,315.080 73.674,315.035 75.024 C 314.995 76.250,314.943 76.476,314.686 76.543 C 314.307 76.642,314.167 77.314,314.167 79.021 C 314.167 80.222,314.138 80.333,313.833 80.333 C 313.516 80.333,313.500 80.444,313.500 82.667 C 313.500 84.881,313.483 85.000,313.170 85.000 C 312.690 85.000,312.650 85.355,312.703 89.167 C 312.750 92.567,312.752 92.584,313.125 92.637 C 313.469 92.685,313.500 92.777,313.500 93.750 C 313.500 94.664,313.546 94.825,313.833 94.917 C 314.031 94.980,314.168 95.170,314.169 95.386 C 314.173 96.080,314.368 96.500,314.686 96.500 C 314.889 96.500,315.000 96.618,315.000 96.833 C 315.000 97.078,315.111 97.167,315.417 97.167 C 315.750 97.167,315.833 97.250,315.833 97.583 C 315.833 97.884,315.923 98.000,316.155 98.000 C 316.362 98.000,316.496 98.134,316.530 98.375 C 316.564 98.616,316.717 98.769,316.958 98.803 C 317.199 98.837,317.333 98.971,317.333 99.178 C 317.333 99.410,317.449 99.500,317.750 99.500 C 318.083 99.500,318.167 99.583,318.167 99.917 C 318.167 100.299,318.228 100.333,318.917 100.333 C 319.606 100.333,319.667 100.367,319.667 100.750 C 319.667 101.133,319.728 101.167,320.417 101.167 C 321.056 101.167,321.167 101.216,321.167 101.500 C 321.167 101.824,321.278 101.833,325.000 101.833 C 328.722 101.833,328.833 101.824,328.833 101.500 C 328.833 101.216,328.944 101.167,329.583 101.167 C 330.272 101.167,330.333 101.133,330.333 100.750 C 330.333 100.368,330.395 100.333,331.080 100.333 C 331.738 100.333,331.839 100.284,331.932 99.917 C 331.997 99.656,332.154 99.500,332.351 99.500 C 332.552 99.500,332.667 99.383,332.667 99.178 C 332.667 98.971,332.801 98.837,333.042 98.803 C 333.283 98.769,333.436 98.616,333.470 98.375 C 333.504 98.134,333.638 98.000,333.845 98.000 C 334.077 98.000,334.167 97.884,334.167 97.583 C 334.167 97.250,334.250 97.167,334.583 97.167 C 334.889 97.167,335.000 97.078,335.000 96.833 C 335.000 96.589,335.111 96.500,335.417 96.500 C 335.750 96.500,335.833 96.417,335.833 96.083 C 335.833 95.778,335.922 95.667,336.167 95.667 C 336.385 95.667,336.500 95.556,336.500 95.345 C 336.500 95.138,336.634 95.004,336.875 94.970 C 337.116 94.936,337.269 94.783,337.303 94.542 C 337.337 94.301,337.471 94.167,337.678 94.167 C 337.948 94.167,338.000 94.047,338.000 93.417 C 338.000 92.728,338.034 92.667,338.417 92.667 C 338.747 92.667,338.833 92.583,338.833 92.262 C 338.833 91.968,338.937 91.842,339.208 91.803 C 339.520 91.759,339.592 91.631,339.635 91.042 C 339.676 90.469,339.748 90.333,340.010 90.333 C 340.241 90.333,340.333 90.218,340.333 89.928 C 340.333 89.635,340.437 89.508,340.708 89.470 C 341.019 89.426,341.092 89.297,341.134 88.719 C 341.176 88.146,341.251 88.011,341.551 87.969 C 341.852 87.926,341.926 87.791,341.968 87.208 C 342.009 86.636,342.081 86.500,342.343 86.500 C 342.615 86.500,342.667 86.382,342.667 85.762 C 342.667 85.123,342.717 85.016,343.042 84.970 C 343.362 84.924,343.424 84.801,343.467 84.125 C 343.530 83.156,344.167 82.900,344.167 83.844 C 344.167 84.478,344.433 85.000,344.756 85.000 C 344.945 85.000,345.000 85.243,345.000 86.083 C 345.000 87.128,345.015 87.167,345.417 87.167 C 345.806 87.167,345.833 87.222,345.833 88.000 C 345.833 88.714,345.880 88.833,346.157 88.833 C 346.419 88.833,346.491 88.969,346.532 89.542 C 346.575 90.131,346.647 90.259,346.958 90.303 C 347.206 90.338,347.333 90.471,347.333 90.694 C 347.333 90.891,347.472 91.067,347.668 91.119 C 347.903 91.180,348.033 91.397,348.105 91.848 C 348.170 92.255,348.316 92.525,348.503 92.584 C 348.665 92.636,348.836 92.825,348.883 93.006 C 348.934 93.200,349.111 93.333,349.318 93.333 C 349.557 93.333,349.667 93.439,349.667 93.671 C 349.667 93.877,349.828 94.070,350.083 94.167 C 350.313 94.254,350.500 94.435,350.500 94.569 C 350.500 94.730,350.754 94.851,351.250 94.925 C 351.834 95.013,352.000 95.107,352.000 95.352 C 352.000 95.552,352.118 95.667,352.322 95.667 C 352.529 95.667,352.663 95.801,352.697 96.042 C 352.741 96.352,352.870 96.425,353.441 96.467 C 353.961 96.505,354.153 96.598,354.217 96.842 C 354.286 97.104,354.449 97.167,355.068 97.167 C 355.773 97.167,355.833 97.199,355.833 97.583 C 355.833 97.966,355.894 98.000,356.583 98.000 C 357.208 98.000,357.333 98.053,357.333 98.316 C 357.333 98.741,357.644 98.833,359.078 98.833 C 360.154 98.833,360.304 98.872,360.382 99.167 C 360.516 99.682,368.833 99.690,368.833 99.174 C 368.833 98.888,368.970 98.843,369.958 98.799 C 370.973 98.755,371.088 98.714,371.136 98.382 C 371.183 98.051,371.298 98.010,372.302 97.966 C 373.314 97.921,373.422 97.882,373.470 97.542 C 373.516 97.217,373.623 97.167,374.262 97.167 C 374.889 97.167,375.000 97.117,375.000 96.833 C 375.000 96.549,375.111 96.500,375.750 96.500 C 376.439 96.500,376.500 96.466,376.500 96.083 C 376.500 95.701,376.561 95.667,377.250 95.667 C 377.880 95.667,378.000 95.615,378.000 95.345 C 378.000 95.138,378.134 95.004,378.375 94.970 C 378.616 94.936,378.769 94.783,378.803 94.542 C 378.842 94.270,378.968 94.167,379.262 94.167 C 379.583 94.167,379.667 94.080,379.667 93.750 C 379.667 93.373,379.732 93.333,380.349 93.333 C 380.887 93.333,381.049 93.264,381.117 93.006 C 381.164 92.825,381.345 92.633,381.518 92.578 C 381.691 92.523,381.833 92.338,381.833 92.167 C 381.833 91.972,381.973 91.837,382.208 91.803 C 382.449 91.769,382.602 91.616,382.637 91.375 C 382.670 91.143,382.805 91.000,382.994 91.000 C 383.342 91.000,383.500 90.684,383.500 89.986 C 383.500 89.611,383.576 89.500,383.833 89.500 C 384.052 89.500,384.167 89.389,384.167 89.178 C 384.167 88.971,384.301 88.837,384.542 88.803 C 384.862 88.758,384.924 88.634,384.967 87.958 C 385.008 87.319,385.077 87.167,385.325 87.167 C 385.775 87.167,385.833 86.860,385.833 84.500 C 385.833 81.823,385.837 81.833,384.829 81.833 C 383.813 81.833,383.500 81.955,383.500 82.351 C 383.500 82.550,383.383 82.667,383.184 82.667 C 382.825 82.667,382.667 82.977,382.667 83.680 C 382.667 84.056,382.591 84.167,382.333 84.167 C 382.089 84.167,382.000 84.278,382.000 84.583 C 382.000 84.917,381.917 85.000,381.583 85.000 C 381.283 85.000,381.167 85.090,381.167 85.322 C 381.167 85.529,381.033 85.663,380.792 85.697 C 380.551 85.731,380.398 85.884,380.363 86.125 C 380.330 86.360,380.195 86.500,380.000 86.500 C 379.805 86.500,379.670 86.640,379.637 86.875 C 379.602 87.116,379.449 87.269,379.208 87.303 C 378.967 87.337,378.833 87.471,378.833 87.678 C 378.833 87.923,378.716 88.000,378.347 88.000 C 377.644 88.000,377.333 88.159,377.333 88.518 C 377.333 88.743,377.214 88.833,376.917 88.833 C 376.621 88.833,376.500 88.924,376.500 89.145 C 376.500 89.382,376.334 89.484,375.817 89.567 C 375.339 89.643,375.108 89.772,375.050 89.995 C 375.004 90.171,374.805 90.338,374.608 90.366 C 374.384 90.398,374.230 90.557,374.197 90.792 C 374.148 91.136,374.056 91.167,373.072 91.167 C 372.111 91.167,372.000 91.201,372.000 91.500 C 372.000 91.792,371.889 91.833,371.097 91.833 C 369.979 91.833,369.667 91.947,369.667 92.351 C 369.667 92.892,363.547 92.833,363.470 92.292 C 363.437 92.057,363.283 91.898,363.059 91.866 C 362.862 91.838,362.663 91.669,362.616 91.491 C 362.549 91.236,362.384 91.167,361.849 91.167 L 361.167 91.167 361.167 90.496 C 361.167 89.934,361.099 89.799,360.750 89.667 C 360.399 89.533,360.333 89.401,360.333 88.822 C 360.333 88.281,360.264 88.117,360.007 88.050 C 359.736 87.979,359.673 87.794,359.632 86.941 C 359.590 86.063,359.530 85.893,359.208 85.752 C 358.842 85.592,358.833 85.525,358.833 82.967 L 358.833 80.346 360.375 80.298 C 361.830 80.253,361.920 80.229,361.970 79.875 C 362.022 79.507,362.067 79.500,364.262 79.500 C 366.371 79.500,366.500 79.481,366.500 79.174 C 366.500 78.888,366.637 78.843,367.625 78.799 C 368.647 78.755,368.755 78.716,368.803 78.375 C 368.852 78.030,368.943 78.000,369.944 78.000 C 370.891 78.000,371.042 77.957,371.118 77.667 C 371.179 77.433,371.346 77.333,371.672 77.333 C 372.357 77.333,372.667 77.172,372.667 76.816 C 372.667 76.553,372.792 76.500,373.417 76.500 C 374.106 76.500,374.167 76.466,374.167 76.083 C 374.167 75.701,374.228 75.667,374.917 75.667 C 375.556 75.667,375.667 75.617,375.667 75.333 C 375.667 75.089,375.778 75.000,376.083 75.000 C 376.414 75.000,376.500 74.916,376.500 74.593 C 376.500 74.233,376.582 74.180,377.208 74.135 C 377.797 74.092,377.926 74.020,377.970 73.708 C 378.008 73.437,378.135 73.333,378.428 73.333 C 378.717 73.333,378.833 73.241,378.833 73.012 C 378.833 72.805,378.967 72.671,379.208 72.637 C 379.449 72.602,379.602 72.449,379.637 72.208 C 379.671 71.967,379.805 71.833,380.012 71.833 C 380.222 71.833,380.333 71.718,380.333 71.500 C 380.333 71.256,380.444 71.167,380.750 71.167 C 381.083 71.167,381.167 71.083,381.167 70.750 C 381.167 70.417,381.250 70.333,381.583 70.333 C 381.917 70.333,382.000 70.250,382.000 69.917 C 382.000 69.611,382.089 69.500,382.333 69.500 C 382.552 69.500,382.667 69.389,382.667 69.178 C 382.667 68.971,382.801 68.837,383.042 68.803 C 383.276 68.770,383.436 68.616,383.468 68.392 C 383.496 68.195,383.665 67.996,383.843 67.949 C 384.096 67.883,384.167 67.718,384.167 67.194 C 384.167 66.625,384.224 66.515,384.542 66.470 C 384.853 66.426,384.925 66.297,384.968 65.717 C 385.004 65.214,385.104 64.989,385.323 64.920 C 385.765 64.780,385.833 64.178,385.833 60.409 C 385.833 56.772,385.797 56.500,385.316 56.500 C 385.053 56.500,385.000 56.375,385.000 55.750 C 385.000 55.061,384.966 55.000,384.583 55.000 C 384.201 55.000,384.167 54.939,384.167 54.250 C 384.167 53.611,384.117 53.500,383.833 53.500 C 383.589 53.500,383.500 53.389,383.500 53.083 C 383.500 52.750,383.417 52.667,383.083 52.667 C 382.701 52.667,382.667 52.606,382.667 51.917 C 382.667 51.292,382.614 51.167,382.351 51.167 C 382.154 51.167,381.997 51.011,381.932 50.750 C 381.864 50.481,381.710 50.333,381.497 50.333 C 381.278 50.333,381.167 50.221,381.167 50.000 C 381.167 49.756,381.056 49.667,380.750 49.667 C 380.417 49.667,380.333 49.583,380.333 49.250 C 380.333 48.963,380.242 48.833,380.040 48.833 C 379.878 48.833,379.672 48.665,379.581 48.458 C 379.454 48.169,379.255 48.072,378.708 48.032 C 378.136 47.991,378.000 47.919,378.000 47.657 C 378.000 47.448,377.886 47.333,377.678 47.333 C 377.471 47.333,377.337 47.199,377.303 46.958 C 377.259 46.647,377.131 46.575,376.542 46.532 C 375.984 46.492,375.833 46.416,375.833 46.175 C 375.833 45.813,375.517 45.667,374.736 45.667 C 374.278 45.667,374.167 45.602,374.167 45.333 C 374.167 45.035,374.056 45.000,373.110 45.000 C 372.145 45.000,372.037 44.964,371.864 44.583 L 371.674 44.167 369.017 44.167 C 366.121 44.167,365.833 44.213,365.833 44.684 C 365.833 44.964,365.700 45.000,364.667 45.000 C 363.623 45.000,363.500 45.034,363.500 45.324 C 363.500 45.585,363.364 45.657,362.792 45.699 C 362.208 45.741,362.074 45.815,362.031 46.116 C 361.987 46.425,361.857 46.490,361.198 46.533 C 360.533 46.576,360.409 46.639,360.363 46.958 C 360.318 47.276,360.208 47.333,359.639 47.333 C 359.109 47.333,358.951 47.403,358.882 47.667 C 358.833 47.851,358.654 48.000,358.481 48.000 C 358.257 48.000,358.167 48.120,358.167 48.417 C 358.167 48.747,358.083 48.833,357.762 48.833 C 357.468 48.833,357.342 48.937,357.303 49.208 C 357.269 49.449,357.116 49.602,356.875 49.637 C 356.634 49.671,356.500 49.805,356.500 50.012 C 356.500 50.222,356.385 50.333,356.167 50.333 C 355.922 50.333,355.833 50.444,355.833 50.750 C 355.833 51.083,355.750 51.167,355.417 51.167 C 355.116 51.167,355.000 51.256,355.000 51.488 C 355.000 51.695,354.866 51.829,354.625 51.863 C 354.384 51.898,354.231 52.051,354.197 52.292 C 354.163 52.533,354.029 52.667,353.822 52.667 C 353.590 52.667,353.500 52.783,353.500 53.083 C 353.500 53.417,353.417 53.500,353.083 53.500 C 352.786 53.500,352.667 53.590,352.667 53.814 C 352.667 53.988,352.518 54.167,352.333 54.215 C 352.070 54.284,352.000 54.442,352.000 54.973 C 352.000 55.541,351.943 55.652,351.625 55.697 C 351.384 55.731,351.231 55.884,351.197 56.125 C 351.167 56.331,351.039 56.500,350.911 56.500 C 350.614 56.500,350.333 57.021,350.333 57.572 C 350.333 57.889,350.247 58.000,350.000 58.000 C 349.716 58.000,349.667 58.111,349.667 58.747 C 349.667 59.404,349.617 59.506,349.250 59.598 C 348.885 59.690,348.833 59.793,348.833 60.435 C 348.833 61.048,348.781 61.167,348.510 61.167 C 348.255 61.167,348.163 61.324,348.075 61.917 C 347.987 62.501,347.893 62.667,347.648 62.667 C 347.370 62.667,347.333 62.801,347.333 63.833 C 347.333 64.967,347.321 65.000,346.917 65.000 C 346.512 65.000,346.500 65.033,346.500 66.167 C 346.500 67.222,346.468 67.333,346.167 67.333 C 345.865 67.333,345.833 67.444,345.833 68.488 C 345.833 69.559,345.806 69.647,345.458 69.697 C 345.094 69.748,345.082 69.812,345.037 71.940 C 344.996 73.896,344.958 74.139,344.687 74.210 C 344.329 74.303,344.167 74.971,344.167 76.354 L 344.167 77.333 343.083 77.333 L 342.000 77.333 342.000 78.083 C 342.000 78.772,341.966 78.833,341.583 78.833 C 341.201 78.833,341.167 78.894,341.167 79.583 C 341.167 80.272,341.133 80.333,340.750 80.333 C 340.417 80.333,340.333 80.417,340.333 80.750 C 340.333 81.056,340.244 81.167,340.000 81.167 C 339.716 81.167,339.667 81.278,339.667 81.917 C 339.667 82.606,339.633 82.667,339.250 82.667 C 338.949 82.667,338.833 82.756,338.833 82.989 C 338.833 83.166,338.683 83.358,338.500 83.417 C 338.317 83.475,338.167 83.662,338.167 83.833 C 338.167 84.028,338.027 84.163,337.792 84.197 C 337.481 84.241,337.408 84.370,337.366 84.948 C 337.324 85.521,337.249 85.655,336.949 85.698 C 336.717 85.731,336.564 85.887,336.530 86.125 C 336.496 86.366,336.362 86.500,336.155 86.500 C 335.923 86.500,335.833 86.616,335.833 86.917 C 335.833 87.250,335.750 87.333,335.417 87.333 C 335.116 87.333,335.000 87.423,335.000 87.655 C 335.000 87.862,334.866 87.996,334.625 88.030 C 334.384 88.064,334.231 88.217,334.197 88.458 C 334.163 88.699,334.029 88.833,333.822 88.833 C 333.615 88.833,333.500 88.948,333.500 89.155 C 333.500 89.362,333.366 89.496,333.125 89.530 C 332.884 89.564,332.731 89.717,332.697 89.958 C 332.663 90.199,332.529 90.333,332.322 90.333 C 332.090 90.333,332.000 90.449,332.000 90.750 C 332.000 91.083,331.917 91.167,331.583 91.167 C 331.278 91.167,331.167 91.256,331.167 91.500 C 331.167 91.757,331.056 91.833,330.680 91.833 C 329.977 91.833,329.667 91.992,329.667 92.351 C 329.667 92.577,329.548 92.667,329.250 92.667 C 328.944 92.667,328.833 92.756,328.833 93.000 C 328.833 93.216,328.722 93.333,328.518 93.333 C 328.322 93.333,328.164 93.488,328.100 93.742 C 328.007 94.114,327.904 94.155,326.957 94.200 C 326.023 94.245,325.911 94.288,325.863 94.625 C 325.825 94.893,325.698 95.000,325.417 95.000 C 325.136 95.000,325.008 94.893,324.970 94.625 C 324.936 94.384,324.783 94.231,324.542 94.197 C 324.178 94.145,324.167 94.087,324.167 92.250 C 324.167 90.413,324.178 90.355,324.542 90.303 C 324.902 90.252,324.919 90.176,324.964 88.386 C 325.009 86.604,325.027 86.519,325.380 86.469 C 325.728 86.420,325.753 86.323,325.798 84.875 C 325.842 83.471,325.875 83.333,326.173 83.333 C 326.464 83.333,326.500 83.215,326.500 82.268 C 326.500 81.271,326.527 81.196,326.917 81.098 C 327.307 81.000,327.333 80.925,327.333 79.933 C 327.333 79.012,327.377 78.861,327.667 78.785 C 327.957 78.709,328.000 78.558,328.000 77.617 C 328.000 76.603,328.026 76.530,328.417 76.432 C 328.807 76.333,328.833 76.260,328.833 75.247 C 328.833 74.300,328.872 74.167,329.147 74.167 C 329.541 74.167,329.661 73.734,329.664 72.311 C 329.666 71.347,329.709 71.194,330.000 71.118 C 330.291 71.042,330.333 70.891,330.333 69.932 C 330.333 68.871,330.348 68.833,330.750 68.833 C 331.154 68.833,331.167 68.799,331.167 67.678 C 331.167 66.607,331.194 66.519,331.542 66.470 C 331.882 66.422,331.921 66.314,331.966 65.292 C 332.009 64.303,332.055 64.167,332.341 64.167 C 332.633 64.167,332.667 64.046,332.667 63.000 C 332.667 61.867,332.679 61.833,333.083 61.833 C 333.488 61.833,333.500 61.800,333.500 60.667 C 333.500 59.611,333.532 59.500,333.833 59.500 C 334.132 59.500,334.167 59.389,334.167 58.428 C 334.167 57.444,334.197 57.352,334.542 57.303 C 334.881 57.255,334.921 57.146,334.965 56.162 C 335.007 55.223,335.064 55.051,335.382 54.912 C 335.695 54.774,335.757 54.597,335.799 53.726 C 335.840 52.873,335.903 52.687,336.174 52.616 C 336.467 52.540,336.500 52.379,336.500 51.016 C 336.500 49.510,336.503 49.500,336.917 49.500 C 337.318 49.500,337.333 49.460,337.333 48.436 C 337.333 47.512,337.377 47.361,337.667 47.285 C 337.957 47.209,338.000 47.058,338.000 46.117 C 338.000 45.103,338.026 45.030,338.417 44.932 C 338.822 44.830,338.833 44.788,338.833 43.330 L 338.833 41.833 340.000 41.833 C 341.056 41.833,341.167 41.802,341.167 41.500 C 341.167 41.183,341.278 41.167,343.413 41.167 L 345.660 41.167 345.765 40.750 L 345.869 40.333 348.101 40.333 C 350.222 40.333,350.333 40.317,350.333 40.000 C 350.333 39.686,350.444 39.667,352.250 39.667 L 354.167 39.667 354.167 39.250 L 354.167 38.833 356.500 38.833 L 358.833 38.833 358.833 38.417 L 358.833 38.000 361.099 38.000 C 363.214 38.000,363.370 37.978,363.450 37.671 C 363.530 37.368,363.708 37.339,365.727 37.296 C 367.855 37.251,367.918 37.239,367.970 36.875 C 368.022 36.507,368.064 36.500,370.345 36.500 L 372.667 36.500 372.667 36.083 L 372.667 35.667 375.682 35.667 C 378.558 35.667,378.702 35.651,378.785 35.333 C 378.868 35.015,379.012 35.000,381.936 35.000 L 385.000 35.000 385.000 34.583 L 385.000 34.167 390.313 34.167 L 395.625 34.167 395.729 33.646 C 396.060 31.994,395.818 29.667,395.316 29.667 C 395.090 29.667,395.000 29.548,395.000 29.250 C 395.000 28.917,394.917 28.833,394.583 28.833 C 394.272 28.833,394.167 28.745,394.167 28.484 C 394.167 28.281,394.034 28.101,393.849 28.052 C 393.674 28.007,393.493 27.826,393.448 27.651 C 393.383 27.405,393.214 27.333,392.694 27.333 C 392.125 27.333,392.015 27.276,391.970 26.958 L 391.917 26.583 385.083 26.583 L 378.250 26.583 378.197 26.958 C 378.144 27.332,378.130 27.333,375.072 27.333 C 372.111 27.333,372.000 27.345,372.000 27.667 C 372.000 27.987,371.889 28.000,369.104 28.000 C 365.815 28.000,365.157 28.085,365.043 28.522 C 364.969 28.802,364.696 28.830,361.606 28.872 C 358.268 28.916,358.250 28.919,358.197 29.292 L 358.143 29.667 354.306 29.667 C 350.609 29.667,350.466 29.679,350.382 30.000 C 350.297 30.322,350.154 30.333,346.147 30.333 L 342.000 30.333 342.000 29.583 C 342.000 28.944,342.049 28.833,342.333 28.833 C 342.655 28.833,342.667 28.722,342.667 25.750 C 342.667 22.788,342.680 22.667,342.997 22.667 C 343.683 22.667,343.727 18.961,343.042 18.863 C 342.717 18.817,342.667 18.711,342.667 18.072 L 342.667 17.333 341.928 17.333 C 341.289 17.333,341.183 17.283,341.137 16.958 C 341.085 16.595,341.019 16.582,338.957 16.537 L 336.831 16.490 336.639 16.912 M118.873 38.792 L 118.917 47.250 119.292 47.303 C 119.616 47.349,119.667 47.456,119.667 48.095 C 119.667 48.722,119.717 48.833,120.000 48.833 C 120.222 48.833,120.333 48.944,120.333 49.167 C 120.333 49.411,120.444 49.500,120.750 49.500 C 121.083 49.500,121.167 49.583,121.167 49.917 C 121.167 50.250,121.250 50.333,121.583 50.333 C 121.917 50.333,122.000 50.417,122.000 50.750 C 122.000 51.056,122.089 51.167,122.333 51.167 C 122.556 51.167,122.667 51.278,122.667 51.500 C 122.667 51.783,122.778 51.833,123.405 51.833 C 124.044 51.833,124.151 51.884,124.197 52.208 C 124.248 52.569,124.324 52.585,126.125 52.630 L 128.000 52.678 128.000 52.255 C 128.000 51.916,128.082 51.833,128.417 51.833 L 128.833 51.833 128.833 48.428 C 128.833 45.024,128.833 45.023,129.208 44.970 C 129.549 44.922,129.588 44.814,129.633 43.792 C 129.676 42.803,129.721 42.667,130.008 42.667 C 130.320 42.667,130.333 42.529,130.333 39.250 C 130.333 35.944,130.322 35.833,130.000 35.833 C 129.756 35.833,129.667 35.722,129.667 35.417 C 129.667 35.083,129.583 35.000,129.250 35.000 C 128.917 35.000,128.833 34.917,128.833 34.583 C 128.833 34.250,128.750 34.167,128.417 34.167 C 128.111 34.167,128.000 34.078,128.000 33.833 C 128.000 33.611,127.889 33.500,127.667 33.500 C 127.422 33.500,127.333 33.389,127.333 33.083 C 127.333 32.753,127.249 32.667,126.928 32.667 C 126.635 32.667,126.508 32.563,126.470 32.292 C 126.436 32.051,126.283 31.898,126.042 31.863 C 125.801 31.829,125.667 31.695,125.667 31.488 C 125.667 31.218,125.547 31.167,124.917 31.167 C 124.292 31.167,124.167 31.114,124.167 30.851 C 124.167 30.385,123.874 30.333,121.235 30.333 L 118.830 30.333 118.873 38.792 M252.667 39.994 C 252.667 40.290,252.530 40.325,251.208 40.369 C 249.840 40.414,249.747 40.440,249.697 40.792 C 249.648 41.137,249.557 41.167,248.556 41.167 C 247.619 41.167,247.457 41.211,247.384 41.491 C 247.320 41.735,247.128 41.828,246.608 41.866 C 246.037 41.908,245.907 41.982,245.863 42.292 C 245.817 42.616,245.710 42.667,245.075 42.667 C 244.430 42.667,244.327 42.718,244.235 43.083 C 244.145 43.441,244.036 43.500,243.466 43.500 C 242.942 43.500,242.784 43.570,242.715 43.833 C 242.654 44.067,242.488 44.167,242.161 44.167 C 241.477 44.167,241.167 44.328,241.167 44.684 C 241.167 44.894,241.049 45.000,240.818 45.000 C 240.615 45.000,240.434 45.133,240.386 45.318 C 240.340 45.493,240.159 45.673,239.985 45.719 C 239.803 45.766,239.667 45.948,239.667 46.141 C 239.667 46.422,239.543 46.490,238.958 46.532 C 238.369 46.575,238.241 46.647,238.197 46.958 C 238.162 47.206,238.029 47.333,237.806 47.333 C 237.609 47.333,237.433 47.472,237.382 47.667 C 237.334 47.850,237.234 48.000,237.159 48.000 C 236.841 48.000,236.500 48.566,236.500 49.095 C 236.500 49.556,236.435 49.667,236.167 49.667 C 235.944 49.667,235.833 49.778,235.833 50.000 C 235.833 50.244,235.722 50.333,235.417 50.333 C 235.083 50.333,235.000 50.417,235.000 50.750 C 235.000 51.046,234.910 51.167,234.688 51.167 C 234.324 51.167,234.171 51.834,234.169 53.445 C 234.166 54.680,234.270 55.000,234.675 55.000 C 234.916 55.000,234.992 55.151,235.032 55.708 C 235.075 56.297,235.147 56.426,235.458 56.470 C 235.706 56.505,235.833 56.638,235.833 56.861 C 235.833 57.052,235.971 57.234,236.151 57.281 C 236.326 57.327,236.507 57.507,236.552 57.682 C 236.617 57.929,236.787 58.000,237.315 58.000 C 237.900 58.000,238.008 58.058,238.098 58.417 C 238.190 58.782,238.293 58.833,238.935 58.833 C 239.556 58.833,239.667 58.884,239.667 59.167 C 239.667 59.486,239.778 59.500,242.333 59.500 C 244.857 59.500,245.000 59.483,245.000 59.178 C 245.000 58.971,245.134 58.837,245.375 58.803 C 245.616 58.769,245.769 58.616,245.803 58.375 C 245.837 58.134,245.971 58.000,246.178 58.000 C 246.448 58.000,246.500 57.880,246.500 57.250 C 246.500 56.561,246.534 56.500,246.917 56.500 C 247.250 56.500,247.333 56.417,247.333 56.083 C 247.333 55.778,247.422 55.667,247.667 55.667 C 247.885 55.667,248.000 55.556,248.000 55.345 C 248.000 55.138,248.134 55.004,248.375 54.970 C 248.616 54.936,248.769 54.783,248.803 54.542 C 248.836 54.310,248.972 54.167,249.159 54.167 C 249.466 54.167,249.660 53.735,249.664 53.042 C 249.666 52.779,249.766 52.667,250.000 52.667 C 250.244 52.667,250.333 52.556,250.333 52.250 C 250.333 51.917,250.417 51.833,250.750 51.833 C 251.051 51.833,251.167 51.744,251.167 51.512 C 251.167 51.305,251.301 51.171,251.542 51.137 C 251.783 51.102,251.936 50.949,251.970 50.708 C 252.015 50.392,252.126 50.333,252.675 50.333 C 253.231 50.333,253.342 50.272,253.432 49.917 C 253.497 49.656,253.654 49.500,253.851 49.500 C 254.056 49.500,254.167 49.383,254.167 49.167 C 254.167 48.922,254.278 48.833,254.583 48.833 C 254.917 48.833,255.000 48.750,255.000 48.417 C 255.000 48.040,255.066 48.000,255.682 48.000 C 256.212 48.000,256.383 47.929,256.447 47.683 C 256.507 47.457,256.740 47.335,257.265 47.256 C 257.835 47.171,258.000 47.076,258.000 46.832 C 258.000 46.576,258.145 46.509,258.792 46.467 C 259.467 46.424,259.591 46.362,259.637 46.042 C 259.722 45.440,261.167 45.480,261.167 46.083 C 261.167 46.417,261.250 46.500,261.583 46.500 L 262.000 46.500 262.000 50.315 L 262.000 54.131 261.583 54.235 C 261.171 54.339,261.167 54.357,261.167 56.158 C 261.167 57.917,261.154 57.979,260.792 58.030 C 260.438 58.080,260.414 58.170,260.369 59.625 C 260.325 61.029,260.292 61.167,259.994 61.167 C 259.700 61.167,259.667 61.285,259.667 62.333 C 259.667 63.406,259.639 63.500,259.318 63.500 C 259.109 63.500,258.934 63.634,258.882 63.833 C 258.796 64.159,258.654 64.167,252.810 64.167 L 246.826 64.167 246.636 64.583 C 246.450 64.992,246.411 65.000,244.557 65.000 C 242.790 65.000,242.667 65.021,242.667 65.327 C 242.667 65.623,242.530 65.658,241.208 65.702 C 239.840 65.747,239.747 65.773,239.697 66.125 C 239.647 66.473,239.559 66.500,238.488 66.500 C 237.367 66.500,237.333 66.512,237.333 66.917 C 237.333 67.299,237.272 67.333,236.583 67.333 C 235.951 67.333,235.833 67.384,235.833 67.658 C 235.833 67.926,235.697 67.990,235.042 68.033 C 234.366 68.076,234.242 68.138,234.197 68.458 C 234.151 68.783,234.044 68.833,233.405 68.833 C 232.789 68.833,232.667 68.886,232.667 69.152 C 232.667 69.396,232.505 69.498,231.980 69.587 C 231.516 69.665,231.267 69.802,231.213 70.009 C 231.169 70.177,230.972 70.338,230.775 70.366 C 230.551 70.398,230.397 70.557,230.363 70.792 C 230.329 71.033,230.195 71.167,229.988 71.167 C 229.782 71.167,229.667 71.282,229.667 71.488 C 229.667 71.695,229.533 71.829,229.292 71.863 C 228.978 71.908,228.908 72.036,228.865 72.643 C 228.826 73.183,228.733 73.391,228.505 73.450 C 228.190 73.533,228.006 73.961,228.002 74.625 C 228.001 74.888,227.901 75.000,227.667 75.000 C 227.378 75.000,227.333 74.889,227.333 74.167 C 227.333 73.444,227.378 73.333,227.667 73.333 C 227.966 73.333,228.000 73.222,228.000 72.250 L 228.000 71.167 226.186 71.167 C 224.512 71.167,224.365 71.192,224.285 71.500 C 224.233 71.699,224.058 71.833,223.849 71.833 C 223.590 71.833,223.500 71.938,223.500 72.240 C 223.500 72.600,223.418 72.653,222.792 72.699 C 222.203 72.741,222.074 72.813,222.030 73.125 C 221.992 73.396,221.865 73.500,221.572 73.500 C 221.283 73.500,221.167 73.592,221.167 73.822 C 221.167 74.029,221.033 74.163,220.792 74.197 C 220.551 74.231,220.398 74.384,220.363 74.625 C 220.329 74.866,220.195 75.000,219.988 75.000 C 219.781 75.000,219.667 75.115,219.667 75.324 C 219.667 75.585,219.531 75.657,218.958 75.699 C 218.369 75.741,218.241 75.813,218.197 76.125 C 218.158 76.396,218.032 76.500,217.738 76.500 C 217.417 76.500,217.333 76.587,217.333 76.917 C 217.333 77.299,217.272 77.333,216.583 77.333 C 215.944 77.333,215.833 77.383,215.833 77.667 C 215.833 77.911,215.722 78.000,215.417 78.000 C 215.083 78.000,215.000 78.083,215.000 78.417 C 215.000 78.799,214.939 78.833,214.250 78.833 C 213.620 78.833,213.500 78.885,213.500 79.155 C 213.500 79.362,213.366 79.496,213.125 79.530 C 212.884 79.564,212.731 79.717,212.697 79.958 C 212.651 80.283,212.544 80.333,211.905 80.333 C 211.229 80.333,211.167 80.368,211.167 80.750 C 211.167 81.133,211.106 81.167,210.417 81.167 C 209.778 81.167,209.667 81.216,209.667 81.500 C 209.667 81.744,209.556 81.833,209.250 81.833 C 208.917 81.833,208.833 81.917,208.833 82.250 C 208.833 82.633,208.772 82.667,208.083 82.667 C 207.444 82.667,207.333 82.716,207.333 83.000 C 207.333 83.257,207.222 83.333,206.847 83.333 C 206.144 83.333,205.833 83.492,205.833 83.851 C 205.833 84.114,205.708 84.167,205.087 84.167 C 204.429 84.167,204.327 84.216,204.235 84.583 C 204.143 84.949,204.040 85.000,203.399 85.000 C 202.784 85.000,202.667 85.052,202.667 85.325 C 202.667 85.608,202.530 85.657,201.625 85.700 C 200.730 85.743,200.560 85.803,200.419 86.125 C 200.275 86.452,200.131 86.500,199.278 86.500 C 198.458 86.500,198.289 86.551,198.219 86.818 C 198.121 87.194,197.704 87.328,196.625 87.331 C 195.945 87.333,195.833 87.380,195.833 87.667 C 195.833 87.987,195.722 88.000,193.083 88.000 L 190.333 88.000 190.333 85.667 L 190.333 83.333 190.750 83.333 C 191.164 83.333,191.167 83.322,191.167 81.833 C 191.167 80.473,191.196 80.333,191.482 80.333 C 191.887 80.333,192.000 80.021,192.000 78.903 C 192.000 78.111,192.041 78.000,192.333 78.000 C 192.635 78.000,192.667 77.889,192.667 76.845 C 192.667 75.774,192.694 75.686,193.042 75.637 C 193.352 75.593,193.425 75.463,193.467 74.892 C 193.505 74.372,193.598 74.180,193.842 74.116 C 194.122 74.043,194.167 73.881,194.167 72.932 C 194.167 71.871,194.181 71.833,194.583 71.833 C 194.965 71.833,195.000 71.771,195.000 71.095 C 195.000 70.456,195.051 70.349,195.375 70.303 C 195.685 70.259,195.759 70.130,195.800 69.559 C 195.838 69.039,195.931 68.847,196.175 68.783 C 196.429 68.717,196.500 68.552,196.500 68.034 C 196.500 67.464,196.559 67.355,196.917 67.265 C 197.284 67.173,197.333 67.071,197.333 66.413 C 197.333 65.778,197.383 65.667,197.667 65.667 C 197.951 65.667,198.000 65.556,198.000 64.917 C 198.000 64.228,198.034 64.167,198.417 64.167 C 198.750 64.167,198.833 64.083,198.833 63.750 C 198.833 63.453,198.924 63.333,199.147 63.333 C 199.467 63.333,199.660 62.913,199.664 62.208 C 199.666 61.945,199.766 61.833,200.000 61.833 C 200.284 61.833,200.333 61.722,200.333 61.083 C 200.333 60.394,200.367 60.333,200.750 60.333 C 201.083 60.333,201.167 60.250,201.167 59.917 C 201.167 59.605,201.255 59.500,201.516 59.500 C 201.722 59.500,201.899 59.366,201.950 59.172 C 201.997 58.992,202.178 58.799,202.351 58.744 C 202.589 58.669,202.667 58.486,202.667 58.000 C 202.667 57.460,202.727 57.348,203.042 57.303 C 203.277 57.270,203.436 57.116,203.468 56.891 C 203.521 56.517,204.296 56.345,205.375 56.469 C 205.826 56.521,205.833 56.541,205.833 57.678 C 205.833 58.717,205.866 58.833,206.162 58.833 C 206.474 58.833,206.494 58.971,206.537 61.458 C 206.583 64.038,206.590 64.084,206.958 64.137 C 207.190 64.169,207.333 64.306,207.333 64.492 C 207.333 64.939,207.764 64.995,211.219 64.998 C 214.352 65.000,215.000 64.899,215.000 64.411 C 215.000 64.236,215.194 64.167,215.682 64.167 C 216.218 64.167,216.383 64.097,216.449 63.843 C 216.496 63.665,216.695 63.496,216.892 63.468 C 217.116 63.436,217.270 63.276,217.303 63.042 C 217.337 62.801,217.471 62.667,217.678 62.667 C 217.910 62.667,218.000 62.551,218.000 62.250 C 218.000 61.917,218.083 61.833,218.417 61.833 L 218.833 61.833 218.833 59.928 C 218.833 58.080,218.844 58.022,219.208 57.970 C 219.573 57.918,219.585 57.855,219.630 55.708 L 219.676 53.500 219.255 53.500 L 218.833 53.500 218.833 51.583 L 218.833 49.667 218.417 49.667 C 218.028 49.667,218.000 49.611,218.000 48.833 C 218.000 48.111,217.956 48.000,217.667 48.000 C 217.444 48.000,217.333 47.889,217.333 47.667 C 217.333 47.422,217.222 47.333,216.917 47.333 C 216.583 47.333,216.500 47.250,216.500 46.917 C 216.500 46.534,216.439 46.500,215.750 46.500 C 215.127 46.500,215.000 46.447,215.000 46.186 C 215.000 45.724,214.594 45.671,210.979 45.669 C 207.321 45.666,206.659 45.744,206.543 46.186 C 206.476 46.443,206.250 46.495,205.024 46.535 C 203.674 46.580,203.580 46.607,203.530 46.958 C 203.484 47.283,203.377 47.333,202.738 47.333 C 202.111 47.333,202.000 47.383,202.000 47.667 C 202.000 47.931,201.888 48.001,201.458 48.003 C 200.836 48.005,200.603 48.130,200.451 48.542 C 200.392 48.702,200.191 48.833,200.005 48.833 C 199.785 48.833,199.667 48.943,199.667 49.147 C 199.667 49.467,199.247 49.660,198.542 49.664 C 198.279 49.666,198.167 49.766,198.167 50.000 C 198.167 50.244,198.056 50.333,197.750 50.333 C 197.417 50.333,197.333 50.417,197.333 50.750 C 197.333 51.133,197.272 51.167,196.583 51.167 C 195.953 51.167,195.833 51.218,195.833 51.488 C 195.833 51.695,195.699 51.829,195.458 51.863 C 195.221 51.897,195.064 52.051,195.031 52.283 C 194.989 52.583,194.854 52.658,194.281 52.699 C 193.703 52.741,193.574 52.814,193.530 53.125 C 193.492 53.396,193.365 53.500,193.072 53.500 C 192.778 53.500,192.667 53.591,192.667 53.833 C 192.667 54.056,192.556 54.167,192.333 54.167 C 192.089 54.167,192.000 54.278,192.000 54.583 C 192.000 54.917,191.917 55.000,191.583 55.000 C 191.283 55.000,191.167 55.090,191.167 55.322 C 191.167 55.529,191.033 55.663,190.792 55.697 C 190.551 55.731,190.398 55.884,190.363 56.125 C 190.329 56.366,190.195 56.500,189.988 56.500 C 189.756 56.500,189.667 56.616,189.667 56.917 C 189.667 57.250,189.583 57.333,189.250 57.333 C 188.944 57.333,188.833 57.422,188.833 57.667 C 188.833 57.883,188.722 58.000,188.518 58.000 C 188.321 58.000,188.164 58.156,188.098 58.417 C 188.032 58.679,187.876 58.833,187.675 58.833 C 187.472 58.833,187.337 58.969,187.303 59.208 C 187.269 59.449,187.116 59.602,186.875 59.637 C 186.644 59.669,186.500 59.806,186.500 59.992 C 186.500 60.158,186.350 60.334,186.167 60.382 C 185.902 60.451,185.833 60.609,185.833 61.151 C 185.833 61.768,185.793 61.833,185.417 61.833 C 185.083 61.833,185.000 61.917,185.000 62.250 C 185.000 62.547,184.910 62.667,184.686 62.667 C 184.366 62.667,184.173 63.087,184.169 63.792 C 184.167 64.055,184.067 64.167,183.833 64.167 C 183.589 64.167,183.500 64.278,183.500 64.583 C 183.500 64.881,183.410 65.000,183.184 65.000 C 182.825 65.000,182.667 65.310,182.667 66.014 C 182.667 66.389,182.591 66.500,182.333 66.500 C 182.051 66.500,182.000 66.611,182.000 67.231 C 182.000 67.877,181.952 67.970,181.583 68.041 C 181.186 68.117,181.167 68.084,181.167 67.322 C 181.167 66.620,181.212 66.517,181.542 66.470 C 181.902 66.419,181.919 66.342,181.964 64.551 C 182.006 62.865,182.042 62.676,182.339 62.582 C 182.848 62.420,182.843 58.833,182.333 58.833 C 182.029 58.833,182.000 58.721,181.997 57.542 C 181.995 56.184,181.926 55.957,181.468 55.789 C 181.277 55.718,181.170 55.456,181.135 54.967 C 181.092 54.369,181.021 54.241,180.708 54.197 C 180.384 54.151,180.333 54.044,180.333 53.405 C 180.333 52.787,180.281 52.667,180.012 52.667 C 179.805 52.667,179.671 52.533,179.637 52.292 C 179.602 52.051,179.449 51.898,179.208 51.863 C 178.892 51.819,178.833 51.707,178.833 51.158 C 178.833 50.602,178.772 50.491,178.417 50.402 C 178.156 50.336,178.000 50.179,178.000 49.982 C 178.000 49.784,177.883 49.667,177.685 49.667 C 177.487 49.667,177.330 49.511,177.265 49.250 C 177.176 48.894,177.065 48.833,176.508 48.833 C 175.959 48.833,175.848 48.774,175.803 48.458 C 175.769 48.217,175.616 48.064,175.375 48.030 C 175.134 47.996,175.000 47.862,175.000 47.655 C 175.000 47.385,174.880 47.333,174.250 47.333 C 173.561 47.333,173.500 47.299,173.500 46.917 C 173.500 46.535,173.438 46.500,172.761 46.500 C 172.184 46.500,172.001 46.431,171.923 46.187 C 171.777 45.727,171.205 45.667,166.993 45.667 C 162.929 45.667,162.667 45.698,162.667 46.184 C 162.667 46.462,162.535 46.500,161.587 46.500 C 160.573 46.500,160.500 46.526,160.402 46.917 C 160.310 47.282,160.207 47.333,159.565 47.333 C 158.944 47.333,158.833 47.384,158.833 47.667 C 158.833 47.883,158.722 48.000,158.518 48.000 C 158.323 48.000,158.164 48.155,158.101 48.407 C 158.015 48.747,157.882 48.823,157.291 48.865 C 156.703 48.908,156.574 48.980,156.530 49.292 C 156.496 49.533,156.362 49.667,156.155 49.667 C 155.944 49.667,155.833 49.782,155.833 50.000 C 155.833 50.244,155.722 50.333,155.417 50.333 C 155.083 50.333,155.000 50.417,155.000 50.750 C 155.000 51.125,154.934 51.167,154.329 51.167 C 153.777 51.167,153.632 51.237,153.509 51.561 C 153.426 51.777,153.203 51.995,153.013 52.045 C 152.822 52.095,152.667 52.246,152.667 52.382 C 152.667 52.517,152.517 52.667,152.333 52.715 C 152.134 52.767,152.000 52.942,152.000 53.151 C 152.000 53.394,151.894 53.500,151.651 53.500 C 151.448 53.500,151.267 53.633,151.219 53.818 C 151.173 53.993,150.995 54.173,150.823 54.218 C 150.606 54.274,150.475 54.512,150.400 54.983 C 150.317 55.501,150.215 55.667,149.979 55.667 C 149.757 55.667,149.667 55.787,149.667 56.083 C 149.667 56.417,149.583 56.500,149.250 56.500 C 148.917 56.500,148.833 56.583,148.833 56.917 C 148.833 57.222,148.744 57.333,148.500 57.333 C 148.284 57.333,148.167 57.444,148.167 57.649 C 148.167 57.846,148.011 58.003,147.750 58.068 C 147.395 58.157,147.333 58.269,147.333 58.818 C 147.333 59.368,147.271 59.479,146.917 59.568 C 146.648 59.636,146.500 59.790,146.500 60.003 C 146.500 60.222,146.388 60.333,146.167 60.333 C 145.922 60.333,145.833 60.222,145.833 59.917 C 145.833 59.611,145.922 59.500,146.167 59.500 C 146.483 59.500,146.500 59.389,146.500 57.262 C 146.500 55.067,146.507 55.022,146.875 54.970 C 147.246 54.917,147.250 54.887,147.295 51.875 L 147.341 48.833 146.930 48.833 C 146.566 48.833,146.513 48.753,146.468 48.125 L 146.417 47.417 143.042 47.372 C 139.777 47.328,139.667 47.337,139.667 47.656 C 139.667 47.946,139.534 47.991,138.542 48.034 C 137.528 48.078,137.412 48.120,137.365 48.449 C 137.322 48.749,137.187 48.824,136.615 48.866 C 136.036 48.908,135.908 48.981,135.863 49.292 C 135.825 49.563,135.698 49.667,135.405 49.667 C 135.116 49.667,135.000 49.759,135.000 49.988 C 135.000 50.195,134.866 50.329,134.625 50.363 C 134.384 50.398,134.231 50.551,134.197 50.792 C 134.163 51.033,134.029 51.167,133.822 51.167 C 133.615 51.167,133.500 51.282,133.500 51.488 C 133.500 51.695,133.366 51.829,133.125 51.863 C 132.760 51.915,132.749 51.975,132.704 54.208 C 132.660 56.362,132.638 56.500,132.329 56.500 C 132.011 56.500,132.000 56.629,132.000 60.333 L 132.000 64.167 131.583 64.167 L 131.167 64.167 131.167 66.807 L 131.167 69.446 130.750 69.636 C 130.337 69.825,130.333 69.845,130.333 71.977 C 130.333 73.988,130.312 74.133,130.000 74.215 C 129.685 74.297,129.667 74.442,129.667 76.889 C 129.667 79.446,129.662 79.477,129.292 79.530 C 128.926 79.582,128.915 79.641,128.870 81.875 C 128.828 83.973,128.798 84.167,128.517 84.167 C 128.143 84.167,128.004 84.847,128.002 86.697 C 128.000 87.830,127.962 87.990,127.667 88.083 C 127.355 88.182,127.333 88.336,127.333 90.416 C 127.333 92.599,127.326 92.645,126.958 92.697 C 126.593 92.749,126.582 92.808,126.537 95.042 C 126.493 97.196,126.471 97.333,126.162 97.333 C 125.851 97.333,125.833 97.455,125.833 99.572 C 125.833 101.766,125.826 101.811,125.458 101.863 C 125.093 101.915,125.082 101.975,125.037 104.208 C 124.994 106.317,124.966 106.500,124.680 106.500 C 124.227 106.500,124.167 106.804,124.167 109.097 C 124.167 111.056,124.149 111.167,123.833 111.167 C 123.511 111.167,123.500 111.278,123.500 114.583 C 123.500 117.853,123.514 118.000,123.823 118.000 C 124.078 118.000,124.170 118.158,124.259 118.750 C 124.343 119.314,124.444 119.500,124.666 119.500 C 124.828 119.500,125.002 119.656,125.052 119.846 C 125.101 120.036,125.297 120.232,125.488 120.282 C 125.683 120.333,125.833 120.509,125.833 120.686 C 125.833 120.947,125.960 121.000,126.583 121.000 C 127.274 121.000,127.333 121.033,127.333 121.421 L 127.333 121.843 129.625 121.796 C 131.826 121.752,131.919 121.736,131.968 121.392 C 131.996 121.195,132.165 120.996,132.343 120.949 C 132.650 120.869,132.667 120.692,132.667 117.516 C 132.667 114.686,132.704 114.167,132.911 114.167 C 133.360 114.167,133.500 113.536,133.500 111.511 C 133.500 109.611,133.518 109.500,133.833 109.500 C 134.147 109.500,134.167 109.389,134.167 107.583 L 134.167 105.667 134.583 105.667 C 134.997 105.667,135.000 105.656,135.000 104.167 C 135.000 102.806,135.029 102.667,135.316 102.667 C 135.746 102.667,135.833 102.357,135.833 100.820 C 135.833 99.611,135.861 99.500,136.167 99.500 C 136.475 99.500,136.500 99.389,136.500 98.012 C 136.500 96.595,136.518 96.521,136.875 96.470 C 137.215 96.422,137.255 96.313,137.299 95.309 C 137.340 94.373,137.398 94.189,137.674 94.116 C 137.955 94.043,138.003 93.874,138.019 92.891 C 138.030 92.263,138.076 91.900,138.122 92.083 C 138.248 92.588,138.470 92.661,139.875 92.664 C 141.055 92.666,141.167 92.696,141.167 93.000 C 141.167 93.518,151.750 93.524,151.915 93.006 C 152.006 92.720,152.197 92.673,153.468 92.631 C 154.827 92.586,154.920 92.560,154.970 92.208 C 155.019 91.863,155.110 91.833,156.111 91.833 C 157.048 91.833,157.210 91.789,157.283 91.509 C 157.347 91.265,157.539 91.172,158.059 91.134 C 158.630 91.092,158.759 91.018,158.803 90.708 C 158.849 90.384,158.956 90.333,159.595 90.333 C 160.271 90.333,160.333 90.298,160.333 89.917 C 160.333 89.533,160.393 89.500,161.099 89.500 C 161.717 89.500,161.881 89.438,161.949 89.176 C 162.010 88.943,162.205 88.837,162.642 88.801 C 163.084 88.764,163.295 88.648,163.415 88.375 C 163.505 88.169,163.711 88.000,163.873 88.000 C 164.075 88.000,164.167 87.870,164.167 87.583 C 164.167 87.202,164.229 87.167,164.905 87.167 C 165.498 87.167,165.665 87.101,165.750 86.833 C 165.808 86.650,166.001 86.500,166.178 86.500 C 166.410 86.500,166.500 86.384,166.500 86.083 C 166.500 85.750,166.583 85.667,166.917 85.667 C 167.213 85.667,167.333 85.576,167.333 85.355 C 167.333 85.118,167.499 85.016,168.017 84.933 C 168.502 84.856,168.725 84.729,168.786 84.495 C 168.834 84.315,168.978 84.167,169.106 84.167 C 169.235 84.167,169.426 83.979,169.530 83.750 C 169.635 83.521,169.858 83.333,170.027 83.333 C 170.219 83.333,170.333 83.213,170.333 83.012 C 170.333 82.805,170.467 82.671,170.708 82.637 C 170.949 82.602,171.102 82.449,171.137 82.208 C 171.172 81.960,171.304 81.833,171.527 81.833 C 171.719 81.833,171.900 81.696,171.948 81.515 C 171.993 81.341,172.174 81.160,172.349 81.114 C 172.529 81.067,172.667 80.886,172.667 80.694 C 172.667 80.471,172.794 80.338,173.042 80.303 C 173.283 80.269,173.436 80.116,173.470 79.875 C 173.504 79.634,173.638 79.500,173.845 79.500 C 174.115 79.500,174.167 79.380,174.167 78.750 C 174.167 78.061,174.201 78.000,174.583 78.000 C 174.884 78.000,175.000 77.910,175.000 77.678 C 175.000 77.471,175.134 77.337,175.375 77.303 C 175.616 77.269,175.769 77.116,175.803 76.875 C 175.837 76.634,175.971 76.500,176.178 76.500 C 176.410 76.500,176.500 76.384,176.500 76.083 C 176.500 75.786,176.590 75.667,176.816 75.667 C 177.175 75.667,177.333 75.356,177.333 74.653 C 177.333 74.278,177.409 74.167,177.667 74.167 C 177.909 74.167,178.000 74.056,178.000 73.762 C 178.000 73.468,178.104 73.342,178.375 73.303 C 178.686 73.259,178.759 73.130,178.801 72.552 C 178.842 71.979,178.917 71.845,179.217 71.802 C 179.519 71.759,179.592 71.625,179.635 71.042 C 179.676 70.469,179.748 70.333,180.010 70.333 C 180.496 70.333,180.487 71.754,180.000 71.882 C 179.710 71.958,179.667 72.109,179.667 73.056 C 179.667 74.057,179.637 74.148,179.292 74.197 C 178.926 74.249,178.915 74.308,178.870 76.542 C 178.827 78.696,178.804 78.833,178.495 78.833 C 177.987 78.833,177.984 83.984,178.493 84.116 C 178.768 84.189,178.826 84.373,178.868 85.309 C 178.912 86.313,178.952 86.422,179.292 86.470 C 179.616 86.516,179.667 86.623,179.667 87.262 C 179.667 87.889,179.717 88.000,180.000 88.000 C 180.234 88.000,180.334 88.112,180.336 88.375 C 180.340 89.080,180.533 89.500,180.853 89.500 C 181.076 89.500,181.167 89.620,181.167 89.917 C 181.167 90.250,181.250 90.333,181.583 90.333 C 181.917 90.333,182.000 90.417,182.000 90.750 C 182.000 91.056,182.089 91.167,182.333 91.167 C 182.556 91.167,182.667 91.278,182.667 91.500 C 182.667 91.744,182.778 91.833,183.083 91.833 C 183.417 91.833,183.500 91.917,183.500 92.250 C 183.500 92.547,183.590 92.667,183.814 92.667 C 183.988 92.667,184.167 92.816,184.215 93.000 C 184.267 93.199,184.442 93.333,184.651 93.333 C 184.912 93.333,185.000 93.438,185.000 93.750 C 185.000 94.083,185.083 94.167,185.417 94.167 C 185.718 94.167,185.833 94.256,185.833 94.490 C 185.833 94.745,185.991 94.837,186.583 94.925 C 187.167 95.013,187.333 95.107,187.333 95.352 C 187.333 95.614,187.459 95.667,188.083 95.667 C 188.772 95.667,188.833 95.701,188.833 96.083 C 188.833 96.464,188.896 96.500,189.564 96.500 C 190.154 96.500,190.311 96.564,190.382 96.833 C 190.461 97.136,190.609 97.167,191.984 97.167 C 193.490 97.167,193.500 97.169,193.500 97.583 L 193.500 98.000 196.497 98.000 L 199.494 98.000 199.598 97.583 C 199.699 97.180,199.748 97.167,201.117 97.167 C 202.391 97.167,202.540 97.134,202.618 96.833 C 202.689 96.564,202.846 96.500,203.436 96.500 C 204.104 96.500,204.167 96.464,204.167 96.083 C 204.167 95.699,204.227 95.667,204.932 95.667 C 205.558 95.667,205.714 95.606,205.785 95.333 C 205.846 95.100,206.012 95.000,206.339 95.000 C 207.018 95.000,207.333 94.839,207.333 94.492 C 207.333 94.251,207.484 94.175,208.042 94.135 C 208.631 94.092,208.759 94.020,208.803 93.708 C 208.842 93.437,208.968 93.333,209.262 93.333 C 209.556 93.333,209.667 93.242,209.667 93.000 C 209.667 92.753,209.778 92.667,210.094 92.667 C 210.653 92.667,211.167 92.385,211.167 92.077 C 211.167 91.941,211.320 91.833,211.516 91.833 C 211.724 91.833,211.900 91.699,211.952 91.500 C 212.000 91.316,212.179 91.167,212.353 91.167 C 212.575 91.167,212.667 91.047,212.667 90.760 C 212.667 90.400,212.749 90.347,213.375 90.301 C 213.964 90.259,214.092 90.187,214.137 89.875 C 214.172 89.627,214.304 89.500,214.527 89.500 C 214.724 89.500,214.901 89.361,214.952 89.167 C 215.000 88.983,215.179 88.833,215.350 88.833 C 215.542 88.833,215.700 88.675,215.765 88.417 C 215.830 88.156,215.987 88.000,216.185 88.000 C 216.410 88.000,216.500 87.881,216.500 87.583 C 216.500 87.250,216.583 87.167,216.917 87.167 C 217.222 87.167,217.333 87.078,217.333 86.833 C 217.333 86.611,217.444 86.500,217.667 86.500 C 217.911 86.500,218.000 86.389,218.000 86.083 C 218.000 85.750,218.083 85.667,218.417 85.667 C 218.717 85.667,218.833 85.577,218.833 85.345 C 218.833 85.138,218.967 85.004,219.208 84.970 C 219.449 84.936,219.602 84.783,219.637 84.542 C 219.671 84.301,219.805 84.167,220.012 84.167 C 220.244 84.167,220.333 84.051,220.333 83.750 C 220.333 83.417,220.417 83.333,220.750 83.333 C 221.056 83.333,221.167 83.244,221.167 83.000 C 221.167 82.779,221.278 82.667,221.497 82.667 C 221.707 82.667,221.864 82.520,221.928 82.266 C 221.983 82.045,222.172 81.827,222.347 81.781 C 222.534 81.733,222.667 81.553,222.667 81.349 C 222.667 81.118,222.773 81.000,222.982 81.000 C 223.341 81.000,223.500 80.690,223.500 79.986 C 223.500 79.611,223.576 79.500,223.833 79.500 C 224.052 79.500,224.167 79.389,224.167 79.178 C 224.167 78.971,224.301 78.837,224.542 78.803 C 224.783 78.769,224.936 78.616,224.970 78.375 C 225.003 78.139,225.139 78.000,225.335 78.000 C 225.576 78.000,225.672 77.831,225.759 77.250 C 225.846 76.666,225.941 76.500,226.186 76.500 C 226.410 76.500,226.500 76.381,226.500 76.083 C 226.500 75.784,226.590 75.667,226.819 75.667 C 226.995 75.667,227.177 75.573,227.223 75.458 C 227.269 75.344,227.313 76.026,227.320 76.974 C 227.332 78.552,227.362 78.705,227.667 78.785 C 227.939 78.856,228.000 79.013,228.002 79.644 C 228.005 80.737,228.152 81.167,228.519 81.167 C 228.780 81.167,228.833 81.293,228.833 81.917 C 228.833 82.606,228.867 82.667,229.250 82.667 C 229.633 82.667,229.667 82.728,229.667 83.417 C 229.667 84.056,229.716 84.167,230.000 84.167 C 230.221 84.167,230.333 84.278,230.333 84.497 C 230.333 84.710,230.481 84.864,230.750 84.932 C 231.011 84.997,231.167 85.154,231.167 85.351 C 231.167 85.577,231.286 85.667,231.583 85.667 C 231.917 85.667,232.000 85.750,232.000 86.083 C 232.000 86.389,232.089 86.500,232.333 86.500 C 232.556 86.500,232.667 86.611,232.667 86.833 C 232.667 87.117,232.778 87.167,233.405 87.167 C 234.044 87.167,234.151 87.217,234.197 87.542 C 234.231 87.783,234.384 87.936,234.625 87.970 C 234.831 87.999,235.000 88.128,235.000 88.256 C 235.000 88.615,235.562 88.833,236.489 88.833 C 237.222 88.833,237.333 88.877,237.333 89.167 C 237.333 89.682,247.084 89.691,247.247 89.176 C 247.324 88.935,247.530 88.839,248.050 88.801 C 248.630 88.759,248.759 88.686,248.803 88.375 C 248.849 88.051,248.956 88.000,249.595 88.000 C 250.271 88.000,250.333 87.965,250.333 87.583 C 250.333 87.201,250.394 87.167,251.083 87.167 C 251.722 87.167,251.833 87.117,251.833 86.833 C 251.833 86.589,251.944 86.500,252.250 86.500 C 252.583 86.500,252.667 86.417,252.667 86.083 C 252.667 85.750,252.750 85.667,253.083 85.667 C 253.488 85.667,253.500 85.700,253.500 86.833 C 253.500 87.877,253.534 88.000,253.824 88.000 C 254.085 88.000,254.157 88.136,254.199 88.708 C 254.241 89.297,254.313 89.426,254.625 89.470 C 254.896 89.508,255.000 89.635,255.000 89.928 C 255.000 90.249,255.087 90.333,255.417 90.333 C 255.750 90.333,255.833 90.417,255.833 90.750 C 255.833 91.056,255.922 91.167,256.167 91.167 C 256.389 91.167,256.500 91.278,256.500 91.500 C 256.500 91.744,256.611 91.833,256.917 91.833 C 257.250 91.833,257.333 91.917,257.333 92.250 C 257.333 92.583,257.417 92.667,257.750 92.667 C 258.056 92.667,258.167 92.756,258.167 93.000 C 258.167 93.299,258.278 93.333,259.238 93.333 C 260.223 93.333,260.314 93.364,260.363 93.708 C 260.415 94.071,260.476 94.083,262.250 94.083 C 264.024 94.083,264.085 94.071,264.137 93.708 C 264.175 93.437,264.302 93.333,264.595 93.333 L 265.000 93.333 265.000 90.667 C 265.000 88.388,265.037 88.000,265.254 88.000 C 265.653 88.000,265.833 87.270,265.833 85.656 C 265.833 84.278,265.858 84.167,266.167 84.167 C 266.468 84.167,266.500 84.056,266.500 83.000 C 266.500 81.966,266.536 81.833,266.816 81.833 C 267.242 81.833,267.333 81.523,267.333 80.070 C 267.333 78.944,267.363 78.833,267.667 78.833 C 267.968 78.833,268.000 78.722,268.000 77.678 C 268.000 76.607,268.027 76.519,268.375 76.470 C 268.716 76.422,268.755 76.314,268.799 75.292 C 268.841 74.329,268.893 74.167,269.155 74.167 C 269.541 74.167,269.661 73.725,269.664 72.303 C 269.666 71.337,269.711 71.175,270.000 71.083 C 270.301 70.988,270.333 70.831,270.333 69.489 C 270.333 68.012,270.337 68.000,270.750 68.000 C 271.163 68.000,271.167 67.986,271.167 66.540 C 271.167 65.185,271.194 65.067,271.542 64.915 C 271.908 64.754,271.918 64.679,271.962 61.802 C 272.005 59.032,272.028 58.847,272.337 58.749 C 272.854 58.585,272.850 52.667,272.333 52.667 C 272.022 52.667,272.000 52.556,272.000 51.014 C 272.000 49.139,271.927 48.833,271.482 48.833 C 271.219 48.833,271.167 48.708,271.167 48.083 C 271.167 47.394,271.133 47.333,270.750 47.333 C 270.366 47.333,270.333 47.273,270.333 46.568 C 270.333 45.942,270.272 45.786,270.000 45.715 C 269.767 45.654,269.667 45.488,269.667 45.161 C 269.667 44.477,269.505 44.167,269.149 44.167 C 268.944 44.167,268.833 44.049,268.833 43.833 C 268.833 43.589,268.722 43.500,268.417 43.500 C 268.083 43.500,268.000 43.417,268.000 43.083 C 268.000 42.778,267.911 42.667,267.667 42.667 C 267.446 42.667,267.333 42.556,267.333 42.337 C 267.333 42.127,267.187 41.970,266.932 41.906 C 266.712 41.850,266.494 41.661,266.448 41.486 C 266.383 41.237,266.214 41.167,265.682 41.167 C 265.066 41.167,265.000 41.127,265.000 40.750 C 265.000 40.369,264.938 40.333,264.269 40.333 C 263.679 40.333,263.522 40.269,263.452 40.000 C 263.316 39.482,252.667 39.476,252.667 39.994 M98.167 40.750 C 98.167 41.134,98.107 41.167,97.401 41.167 C 96.776 41.167,96.620 41.228,96.548 41.500 C 96.500 41.684,96.321 41.833,96.147 41.833 C 95.925 41.833,95.833 41.953,95.833 42.240 C 95.833 42.600,95.751 42.653,95.125 42.699 C 94.536 42.741,94.408 42.813,94.363 43.125 C 94.328 43.373,94.196 43.500,93.973 43.500 C 93.779 43.500,93.599 43.638,93.551 43.824 C 93.504 44.002,93.305 44.171,93.108 44.199 C 92.884 44.231,92.730 44.390,92.697 44.625 C 92.663 44.866,92.529 45.000,92.322 45.000 C 92.090 45.000,92.000 45.116,92.000 45.417 C 92.000 45.728,91.912 45.833,91.651 45.833 C 91.442 45.833,91.267 45.967,91.215 46.167 C 91.167 46.350,91.022 46.500,90.894 46.500 C 90.765 46.500,90.574 46.688,90.470 46.917 C 90.365 47.146,90.142 47.333,89.973 47.333 C 89.721 47.333,89.667 47.466,89.667 48.083 C 89.667 48.772,89.633 48.833,89.250 48.833 C 88.917 48.833,88.833 48.917,88.833 49.250 C 88.833 49.556,88.744 49.667,88.500 49.667 C 88.282 49.667,88.167 49.778,88.167 49.988 C 88.167 50.195,88.033 50.329,87.792 50.363 C 87.481 50.408,87.408 50.536,87.366 51.115 C 87.324 51.687,87.249 51.822,86.949 51.865 C 86.717 51.898,86.564 52.054,86.530 52.292 C 86.496 52.533,86.362 52.667,86.155 52.667 C 85.927 52.667,85.833 52.783,85.833 53.064 C 85.833 53.355,85.722 53.482,85.417 53.541 L 85.000 53.620 85.000 50.477 L 85.000 47.333 84.583 47.333 C 84.250 47.333,84.167 47.250,84.167 46.917 C 84.167 46.611,84.078 46.500,83.833 46.500 C 83.617 46.500,83.500 46.389,83.500 46.184 C 83.500 45.721,83.205 45.667,80.674 45.667 C 77.913 45.667,77.333 45.757,77.333 46.188 C 77.333 46.447,77.206 46.500,76.583 46.500 C 75.894 46.500,75.833 46.534,75.833 46.917 C 75.833 47.298,75.771 47.333,75.103 47.333 C 74.512 47.333,74.355 47.397,74.285 47.667 C 74.233 47.866,74.058 48.000,73.849 48.000 C 73.588 48.000,73.500 48.105,73.500 48.417 C 73.500 48.750,73.417 48.833,73.083 48.833 C 72.750 48.833,72.667 48.917,72.667 49.250 C 72.667 49.556,72.578 49.667,72.333 49.667 C 72.111 49.667,72.000 49.778,72.000 50.000 C 72.000 50.244,71.889 50.333,71.583 50.333 C 71.202 50.333,71.167 50.396,71.167 51.065 C 71.167 51.708,71.116 51.810,70.748 51.902 L 70.330 52.007 70.373 59.212 L 70.417 66.417 70.792 66.470 L 71.167 66.523 71.167 73.012 L 71.167 79.500 71.583 79.500 L 72.000 79.500 72.000 84.917 C 72.000 90.222,72.007 90.333,72.333 90.333 C 72.591 90.333,72.667 90.444,72.667 90.820 C 72.667 91.523,72.825 91.833,73.184 91.833 C 73.383 91.833,73.500 91.950,73.500 92.149 C 73.500 92.508,73.810 92.667,74.514 92.667 C 74.889 92.667,75.000 92.743,75.000 93.000 C 75.000 93.284,75.111 93.333,75.750 93.333 C 76.439 93.333,76.500 93.367,76.500 93.750 L 76.500 94.167 78.417 94.167 L 80.333 94.167 80.333 93.750 C 80.333 93.417,80.417 93.333,80.750 93.333 L 81.167 93.333 81.167 89.206 C 81.167 85.086,81.167 85.079,81.542 84.915 C 81.894 84.760,81.919 84.637,81.964 82.875 C 82.007 81.137,82.035 81.000,82.339 81.000 C 82.641 81.000,82.667 80.881,82.667 79.500 C 82.667 78.139,82.696 78.000,82.982 78.000 C 83.408 78.000,83.500 77.689,83.500 76.256 C 83.500 75.179,83.538 75.029,83.833 74.952 C 84.124 74.876,84.167 74.724,84.167 73.777 C 84.167 72.776,84.197 72.686,84.542 72.637 C 84.882 72.588,84.921 72.480,84.966 71.469 C 85.010 70.465,85.051 70.349,85.382 70.302 C 85.686 70.259,85.759 70.126,85.801 69.542 C 85.843 68.969,85.915 68.833,86.176 68.833 C 86.449 68.833,86.500 68.715,86.500 68.079 C 86.500 67.428,86.557 67.303,86.917 67.167 C 87.266 67.034,87.333 66.900,87.333 66.337 C 87.333 65.778,87.389 65.667,87.667 65.667 C 87.950 65.667,88.000 65.556,88.000 64.928 C 88.000 64.289,88.051 64.183,88.375 64.137 C 88.687 64.092,88.759 63.964,88.801 63.375 C 88.836 62.901,88.930 62.667,89.087 62.667 C 89.383 62.667,89.667 62.148,89.667 61.606 C 89.667 61.336,89.784 61.152,90.000 61.083 C 90.267 60.998,90.333 60.831,90.333 60.239 C 90.333 59.562,90.368 59.500,90.750 59.500 C 91.047 59.500,91.167 59.410,91.167 59.186 C 91.167 59.013,91.315 58.834,91.495 58.786 C 91.727 58.726,91.856 58.503,91.931 58.031 C 92.004 57.572,92.136 57.337,92.352 57.280 C 92.525 57.235,92.667 57.059,92.667 56.888 C 92.667 56.718,92.835 56.505,93.042 56.415 C 93.317 56.294,93.430 56.084,93.468 55.625 C 93.509 55.135,93.590 55.000,93.843 55.000 C 94.077 55.000,94.167 54.885,94.167 54.583 C 94.167 54.250,94.250 54.167,94.583 54.167 C 94.884 54.167,95.000 54.077,95.000 53.845 C 95.000 53.638,95.134 53.504,95.375 53.470 C 95.616 53.436,95.769 53.283,95.803 53.042 C 95.837 52.801,95.971 52.667,96.178 52.667 C 96.663 52.667,96.652 54.088,96.167 54.215 C 95.876 54.291,95.833 54.442,95.833 55.401 C 95.833 56.462,95.819 56.500,95.417 56.500 C 95.035 56.500,95.000 56.562,95.000 57.239 C 95.000 57.816,94.931 57.999,94.687 58.077 C 94.359 58.181,94.167 58.802,94.167 59.751 C 94.167 60.154,94.081 60.317,93.833 60.382 C 93.341 60.510,93.315 64.167,93.807 64.167 C 93.975 64.167,94.199 64.354,94.303 64.583 C 94.474 64.959,94.589 65.000,95.477 65.000 C 96.321 65.000,96.474 65.047,96.548 65.333 C 96.683 65.847,102.667 65.854,102.667 65.341 C 102.667 65.055,102.803 65.009,103.792 64.966 C 104.814 64.921,104.922 64.882,104.970 64.542 C 105.016 64.217,105.123 64.167,105.762 64.167 C 106.375 64.167,106.500 64.113,106.500 63.851 C 106.500 63.654,106.656 63.497,106.917 63.432 C 107.284 63.339,107.333 63.238,107.333 62.580 C 107.333 61.944,107.383 61.833,107.667 61.833 C 107.950 61.833,108.000 61.722,108.000 61.095 C 108.000 60.456,108.051 60.349,108.375 60.303 C 108.716 60.255,108.755 60.147,108.799 59.125 C 108.841 58.162,108.893 58.000,109.155 58.000 C 109.628 58.000,109.662 57.615,109.664 52.139 C 109.667 46.732,109.646 46.500,109.149 46.500 C 108.872 46.500,108.833 46.369,108.833 45.420 C 108.833 44.407,108.807 44.333,108.417 44.235 C 108.156 44.170,108.000 44.013,108.000 43.815 C 108.000 43.614,107.883 43.500,107.676 43.500 C 107.415 43.500,107.343 43.364,107.301 42.792 C 107.259 42.209,107.185 42.074,106.885 42.031 C 106.658 41.999,106.501 41.842,106.469 41.615 C 106.426 41.315,106.291 41.241,105.708 41.199 C 105.082 41.153,105.000 41.100,105.000 40.740 L 105.000 40.333 101.583 40.333 L 98.167 40.333 98.167 40.750 M303.500 40.747 C 303.500 41.133,303.441 41.167,302.750 41.167 C 302.120 41.167,302.000 41.218,302.000 41.488 C 302.000 41.695,301.866 41.829,301.625 41.863 C 301.387 41.897,301.231 42.051,301.198 42.283 C 301.155 42.583,301.021 42.658,300.448 42.699 C 299.870 42.741,299.741 42.814,299.697 43.125 C 299.658 43.396,299.532 43.500,299.238 43.500 C 298.944 43.500,298.833 43.591,298.833 43.833 C 298.833 44.056,298.722 44.167,298.500 44.167 C 298.256 44.167,298.167 44.278,298.167 44.583 C 298.167 44.917,298.083 45.000,297.750 45.000 C 297.446 45.000,297.333 45.089,297.333 45.330 C 297.333 45.543,297.186 45.697,296.917 45.765 C 296.656 45.830,296.500 45.987,296.500 46.185 C 296.500 46.389,296.383 46.500,296.167 46.500 C 295.925 46.500,295.833 46.611,295.833 46.905 C 295.833 47.198,295.730 47.325,295.458 47.363 C 295.148 47.408,295.075 47.536,295.033 48.115 C 294.991 48.687,294.916 48.822,294.616 48.865 C 294.384 48.898,294.231 49.054,294.197 49.292 C 294.163 49.533,294.029 49.667,293.822 49.667 C 293.615 49.667,293.500 49.782,293.500 49.988 C 293.500 50.195,293.366 50.329,293.125 50.363 C 292.884 50.398,292.731 50.551,292.697 50.792 C 292.663 51.033,292.529 51.167,292.322 51.167 C 292.052 51.167,292.000 51.287,292.000 51.917 C 292.000 52.606,291.966 52.667,291.583 52.667 C 291.250 52.667,291.167 52.750,291.167 53.083 C 291.167 53.384,291.077 53.500,290.846 53.500 C 290.669 53.500,290.490 53.631,290.448 53.792 C 290.406 53.952,290.363 52.565,290.353 50.708 C 290.334 47.451,290.322 47.333,290.000 47.333 C 289.756 47.333,289.667 47.222,289.667 46.917 C 289.667 46.587,289.583 46.500,289.262 46.500 C 288.968 46.500,288.842 46.396,288.803 46.125 C 288.705 45.434,282.667 45.487,282.667 46.179 C 282.667 46.448,282.546 46.500,281.917 46.500 C 281.228 46.500,281.167 46.534,281.167 46.917 C 281.167 47.299,281.106 47.333,280.417 47.333 C 279.778 47.333,279.667 47.383,279.667 47.667 C 279.667 47.911,279.556 48.000,279.250 48.000 C 278.917 48.000,278.833 48.083,278.833 48.417 C 278.833 48.721,278.744 48.833,278.503 48.833 C 278.290 48.833,278.136 48.981,278.068 49.250 C 278.003 49.511,277.846 49.667,277.649 49.667 C 277.448 49.667,277.333 49.784,277.333 49.988 C 277.333 50.195,277.199 50.329,276.958 50.363 C 276.648 50.407,276.575 50.537,276.533 51.108 C 276.495 51.628,276.402 51.820,276.158 51.884 C 275.641 52.019,275.650 68.650,276.167 68.785 C 276.492 68.870,276.500 69.012,276.500 74.672 C 276.500 80.786,276.518 81.000,277.018 81.000 C 277.320 81.000,277.333 81.199,277.333 85.667 C 277.333 90.126,277.347 90.333,277.647 90.333 C 277.967 90.333,278.160 90.753,278.164 91.458 C 278.166 91.721,278.266 91.833,278.500 91.833 C 278.683 91.833,278.833 91.943,278.833 92.077 C 278.833 92.385,279.347 92.667,279.906 92.667 C 280.222 92.667,280.333 92.753,280.333 93.000 C 280.333 93.242,280.444 93.333,280.738 93.333 C 281.032 93.333,281.158 93.437,281.197 93.708 C 281.249 94.076,281.294 94.083,283.500 94.083 C 285.706 94.083,285.751 94.076,285.803 93.708 C 285.837 93.467,285.971 93.333,286.178 93.333 C 286.489 93.333,286.500 93.162,286.500 88.333 L 286.500 83.333 286.917 83.333 C 287.330 83.333,287.333 83.322,287.333 81.833 C 287.333 80.444,287.358 80.333,287.667 80.333 C 287.975 80.333,288.000 80.222,288.000 78.845 C 288.000 77.428,288.018 77.354,288.375 77.303 C 288.714 77.255,288.755 77.146,288.798 76.162 C 288.840 75.223,288.898 75.051,289.215 74.912 C 289.528 74.774,289.591 74.597,289.632 73.726 C 289.673 72.873,289.736 72.687,290.007 72.616 C 290.289 72.543,290.333 72.383,290.333 71.432 C 290.333 70.371,290.348 70.333,290.750 70.333 C 291.133 70.333,291.167 70.272,291.167 69.583 C 291.167 68.959,291.219 68.833,291.482 68.833 C 291.853 68.833,292.000 68.522,292.000 67.736 C 292.000 67.278,292.065 67.167,292.333 67.167 C 292.632 67.167,292.667 67.056,292.667 66.095 C 292.667 65.110,292.697 65.019,293.042 64.970 C 293.353 64.926,293.425 64.797,293.468 64.208 C 293.509 63.636,293.581 63.500,293.843 63.500 C 294.120 63.500,294.167 63.381,294.167 62.667 C 294.167 61.889,294.194 61.833,294.583 61.833 C 294.895 61.833,295.000 61.745,295.000 61.484 C 295.000 61.278,295.133 61.101,295.326 61.050 C 295.562 60.988,295.682 60.764,295.761 60.233 C 295.846 59.665,295.942 59.500,296.186 59.500 C 296.447 59.500,296.500 59.374,296.500 58.750 C 296.500 58.061,296.534 58.000,296.917 58.000 C 297.214 58.000,297.333 57.910,297.333 57.686 C 297.333 57.512,297.482 57.333,297.667 57.285 C 297.861 57.234,298.000 57.058,298.000 56.861 C 298.000 56.638,298.127 56.505,298.375 56.470 C 298.686 56.426,298.759 56.297,298.801 55.719 C 298.842 55.146,298.917 55.011,299.217 54.969 C 299.449 54.936,299.603 54.779,299.637 54.542 C 299.671 54.301,299.805 54.167,300.012 54.167 C 300.218 54.167,300.333 54.052,300.333 53.845 C 300.333 53.638,300.467 53.504,300.708 53.470 C 300.943 53.437,301.102 53.283,301.134 53.059 C 301.254 52.221,302.000 52.467,302.000 53.345 C 302.000 54.046,301.954 54.150,301.625 54.197 C 301.285 54.245,301.245 54.353,301.201 55.364 C 301.157 56.369,301.116 56.484,300.784 56.531 C 300.483 56.574,300.408 56.708,300.366 57.275 C 300.328 57.794,300.235 57.987,299.991 58.051 C 299.711 58.124,299.667 58.285,299.667 59.234 C 299.667 60.295,299.652 60.333,299.250 60.333 L 298.833 60.333 298.833 62.250 L 298.833 64.167 299.238 64.167 C 299.532 64.167,299.658 64.270,299.697 64.542 C 299.745 64.882,299.853 64.921,300.875 64.966 C 301.863 65.009,302.000 65.055,302.000 65.341 C 302.000 65.652,302.134 65.667,305.000 65.667 C 307.866 65.667,308.000 65.652,308.000 65.341 C 308.000 65.055,308.137 65.009,309.125 64.966 C 310.147 64.921,310.255 64.882,310.303 64.542 C 310.348 64.224,310.459 64.167,311.027 64.167 C 311.566 64.167,311.716 64.099,311.788 63.821 C 311.838 63.630,312.056 63.407,312.273 63.325 C 312.595 63.202,312.667 63.055,312.667 62.516 C 312.667 61.959,312.725 61.848,313.042 61.803 C 313.352 61.759,313.425 61.630,313.467 61.059 C 313.505 60.539,313.598 60.347,313.842 60.283 C 314.132 60.207,314.167 60.045,314.167 58.777 C 314.167 57.431,314.186 57.354,314.542 57.303 L 314.917 57.250 314.917 51.917 L 314.917 46.583 314.542 46.530 C 314.217 46.484,314.167 46.377,314.167 45.738 C 314.167 45.111,314.117 45.000,313.833 45.000 C 313.549 45.000,313.500 44.889,313.500 44.250 C 313.500 43.561,313.466 43.500,313.083 43.500 C 312.702 43.500,312.667 43.438,312.667 42.769 L 312.667 42.038 311.917 41.925 C 311.324 41.837,311.167 41.745,311.167 41.490 C 311.167 41.259,311.051 41.167,310.762 41.167 C 310.468 41.167,310.342 41.063,310.303 40.792 C 310.250 40.419,310.233 40.416,306.875 40.372 L 303.500 40.326 303.500 40.747 M374.167 54.147 C 374.167 55.488,374.135 55.636,373.833 55.715 C 373.561 55.786,373.500 55.942,373.500 56.568 C 373.500 57.208,373.448 57.333,373.184 57.333 C 372.788 57.333,372.667 57.646,372.667 58.669 C 372.667 59.331,372.606 59.497,372.333 59.583 C 372.066 59.668,372.000 59.836,372.000 60.428 C 372.000 61.105,371.965 61.167,371.583 61.167 C 371.201 61.167,371.167 61.228,371.167 61.917 C 371.167 62.606,371.133 62.667,370.750 62.667 C 370.417 62.667,370.333 62.750,370.333 63.083 C 370.333 63.389,370.244 63.500,370.000 63.500 C 369.716 63.500,369.667 63.611,369.667 64.250 C 369.667 64.939,369.633 65.000,369.250 65.000 C 368.949 65.000,368.833 65.090,368.833 65.322 C 368.833 65.499,368.691 65.689,368.518 65.744 C 368.297 65.814,368.170 66.067,368.091 66.589 C 368.003 67.176,367.911 67.333,367.656 67.333 C 367.448 67.333,367.333 67.448,367.333 67.655 C 367.333 67.862,367.199 67.996,366.958 68.030 C 366.717 68.064,366.564 68.217,366.530 68.458 C 366.496 68.699,366.362 68.833,366.155 68.833 C 365.951 68.833,365.833 68.948,365.833 69.149 C 365.833 69.346,365.677 69.503,365.417 69.568 C 365.148 69.636,365.000 69.790,365.000 70.003 C 365.000 70.221,364.888 70.333,364.670 70.333 C 364.457 70.333,364.303 70.481,364.235 70.750 C 364.170 71.011,364.013 71.167,363.815 71.167 C 363.615 71.167,363.500 71.284,363.500 71.488 C 363.500 71.695,363.366 71.829,363.125 71.863 C 362.884 71.898,362.731 72.051,362.697 72.292 C 362.663 72.533,362.529 72.667,362.322 72.667 C 362.115 72.667,362.000 72.782,362.000 72.990 C 362.000 73.244,361.843 73.336,361.265 73.423 C 360.740 73.502,360.507 73.624,360.447 73.850 C 360.317 74.348,359.667 74.265,359.667 73.750 C 359.667 73.444,359.756 73.333,360.000 73.333 C 360.308 73.333,360.333 73.222,360.333 71.845 C 360.333 70.428,360.351 70.354,360.708 70.303 C 361.049 70.255,361.088 70.147,361.133 69.125 C 361.175 68.160,361.226 68.000,361.490 68.000 C 361.887 68.000,362.000 67.682,362.000 66.570 C 362.000 65.778,362.041 65.667,362.333 65.667 C 362.617 65.667,362.667 65.556,362.667 64.917 C 362.667 64.228,362.701 64.167,363.083 64.167 C 363.466 64.167,363.500 64.106,363.500 63.417 C 363.500 62.778,363.549 62.667,363.833 62.667 C 364.075 62.667,364.167 62.556,364.167 62.262 C 364.167 61.968,364.270 61.842,364.542 61.803 C 364.852 61.759,364.925 61.630,364.967 61.052 C 365.009 60.479,365.084 60.345,365.384 60.302 C 365.616 60.269,365.769 60.113,365.803 59.875 C 365.837 59.634,365.971 59.500,366.178 59.500 C 366.448 59.500,366.500 59.380,366.500 58.750 C 366.500 58.061,366.534 58.000,366.917 58.000 C 367.214 58.000,367.333 57.910,367.333 57.686 C 367.333 57.512,367.482 57.333,367.667 57.285 C 367.866 57.233,368.000 57.058,368.000 56.849 C 368.000 56.588,368.105 56.500,368.417 56.500 C 368.750 56.500,368.833 56.417,368.833 56.083 C 368.833 55.772,368.921 55.667,369.182 55.667 C 369.391 55.667,369.566 55.533,369.618 55.333 C 369.667 55.149,369.846 55.000,370.019 55.000 C 370.243 55.000,370.333 54.880,370.333 54.583 C 370.333 54.201,370.394 54.167,371.083 54.167 C 371.722 54.167,371.833 54.117,371.833 53.833 C 371.833 53.589,371.944 53.500,372.250 53.500 C 372.583 53.500,372.667 53.417,372.667 53.083 C 372.667 52.701,372.728 52.667,373.417 52.667 L 374.167 52.667 374.167 54.147 M166.233 54.167 C 166.367 54.167,166.501 54.335,166.530 54.542 C 166.564 54.783,166.717 54.936,166.958 54.970 C 167.327 55.022,167.333 55.065,167.333 57.333 C 167.333 59.602,167.327 59.644,166.958 59.697 C 166.606 59.747,166.580 59.840,166.535 61.208 C 166.492 62.530,166.456 62.667,166.160 62.667 C 165.867 62.667,165.833 62.785,165.833 63.833 C 165.833 64.967,165.821 65.000,165.417 65.000 C 165.012 65.000,165.000 65.034,165.000 66.155 C 165.000 67.226,164.973 67.314,164.625 67.363 C 164.313 67.408,164.241 67.536,164.199 68.125 C 164.157 68.698,164.085 68.833,163.824 68.833 C 163.552 68.833,163.500 68.952,163.500 69.572 C 163.500 70.211,163.449 70.317,163.125 70.363 C 162.815 70.407,162.741 70.537,162.700 71.108 C 162.662 71.619,162.567 71.820,162.335 71.881 C 162.099 71.943,162.008 72.145,161.969 72.690 C 161.925 73.298,161.855 73.425,161.542 73.470 C 161.301 73.504,161.167 73.638,161.167 73.845 C 161.167 74.022,161.057 74.167,160.923 74.167 C 160.619 74.167,160.333 74.678,160.333 75.220 C 160.333 75.488,160.219 75.658,160.000 75.715 C 159.801 75.767,159.667 75.942,159.667 76.151 C 159.667 76.382,159.560 76.500,159.351 76.500 C 158.992 76.500,158.833 76.810,158.833 77.514 C 158.833 77.887,158.757 78.000,158.503 78.000 C 158.290 78.000,158.136 78.148,158.068 78.417 C 158.003 78.677,157.846 78.833,157.649 78.833 C 157.448 78.833,157.333 78.951,157.333 79.155 C 157.333 79.362,157.199 79.496,156.958 79.530 C 156.717 79.564,156.564 79.717,156.530 79.958 C 156.496 80.199,156.362 80.333,156.155 80.333 C 155.923 80.333,155.833 80.449,155.833 80.750 C 155.833 81.083,155.750 81.167,155.417 81.167 C 155.116 81.167,155.000 81.256,155.000 81.488 C 155.000 81.695,154.866 81.829,154.625 81.863 C 154.384 81.898,154.231 82.051,154.197 82.292 C 154.152 82.607,154.040 82.667,153.500 82.667 C 153.008 82.667,152.831 82.743,152.753 82.991 C 152.696 83.170,152.503 83.363,152.325 83.419 C 152.146 83.476,152.000 83.667,152.000 83.845 C 152.000 84.115,151.880 84.167,151.253 84.167 C 150.596 84.167,150.494 84.216,150.402 84.583 C 150.310 84.949,150.207 85.000,149.565 85.000 C 148.944 85.000,148.833 85.051,148.833 85.333 C 148.833 85.617,148.722 85.667,148.083 85.667 C 147.394 85.667,147.333 85.701,147.333 86.083 L 147.333 86.500 144.208 86.500 L 141.083 86.500 141.141 85.667 C 141.188 84.989,141.256 84.833,141.506 84.833 C 141.741 84.833,141.839 84.661,141.923 84.098 C 142.002 83.573,142.124 83.340,142.350 83.281 C 142.617 83.211,142.667 83.040,142.667 82.194 C 142.667 81.280,142.700 81.185,143.042 81.137 C 143.362 81.091,143.424 80.967,143.467 80.292 C 143.510 79.636,143.574 79.500,143.842 79.500 C 144.046 79.500,144.167 79.386,144.167 79.193 C 144.167 79.025,144.354 78.801,144.583 78.697 C 144.927 78.540,145.000 78.390,145.000 77.837 C 145.000 77.285,145.057 77.167,145.323 77.167 C 145.578 77.167,145.670 77.009,145.759 76.417 C 145.846 75.833,145.941 75.667,146.186 75.667 C 146.447 75.667,146.500 75.541,146.500 74.917 C 146.500 74.228,146.534 74.167,146.917 74.167 C 147.299 74.167,147.333 74.106,147.333 73.417 C 147.333 72.778,147.383 72.667,147.667 72.667 C 147.909 72.667,148.000 72.556,148.000 72.262 C 148.000 71.968,148.104 71.842,148.375 71.803 C 148.686 71.759,148.759 71.630,148.801 71.052 C 148.842 70.479,148.917 70.345,149.217 70.302 C 149.449 70.269,149.603 70.113,149.637 69.875 C 149.671 69.634,149.805 69.500,150.012 69.500 C 150.282 69.500,150.333 69.380,150.333 68.750 C 150.333 68.061,150.367 68.000,150.750 68.000 C 151.083 68.000,151.167 67.917,151.167 67.583 C 151.167 67.282,151.256 67.167,151.490 67.167 C 151.745 67.167,151.837 67.009,151.925 66.417 C 152.013 65.833,152.107 65.667,152.352 65.667 C 152.556 65.667,152.667 65.549,152.667 65.333 C 152.667 65.150,152.736 65.000,152.821 65.000 C 153.138 65.000,153.500 64.460,153.500 63.988 C 153.500 63.611,153.576 63.500,153.833 63.500 C 154.078 63.500,154.167 63.389,154.167 63.083 C 154.167 62.750,154.250 62.667,154.583 62.667 C 154.917 62.667,155.000 62.583,155.000 62.250 C 155.000 61.957,155.091 61.833,155.307 61.833 C 155.475 61.833,155.699 61.646,155.803 61.417 C 155.907 61.188,156.107 61.000,156.246 61.000 C 156.436 61.000,156.500 60.810,156.500 60.250 C 156.500 59.561,156.534 59.500,156.917 59.500 C 157.222 59.500,157.333 59.411,157.333 59.167 C 157.333 58.944,157.444 58.833,157.667 58.833 C 157.911 58.833,158.000 58.722,158.000 58.417 C 158.000 58.083,158.083 58.000,158.417 58.000 C 158.714 58.000,158.833 57.910,158.833 57.686 C 158.833 57.441,158.999 57.346,159.583 57.259 C 160.165 57.172,160.333 57.076,160.333 56.835 C 160.333 56.639,160.472 56.503,160.708 56.470 C 160.949 56.436,161.102 56.283,161.137 56.042 C 161.175 55.770,161.302 55.667,161.595 55.667 C 161.885 55.667,162.000 55.575,162.000 55.343 C 162.000 55.081,162.136 55.009,162.708 54.968 C 163.297 54.925,163.426 54.853,163.470 54.542 C 163.519 54.197,163.610 54.167,164.595 54.167 C 165.592 54.167,165.667 54.141,165.677 53.792 L 165.688 53.417 165.839 53.792 C 165.921 53.998,166.099 54.167,166.233 54.167 M111.167 57.627 C 111.167 57.789,110.998 57.995,110.792 58.085 L 110.417 58.250 110.373 66.189 C 110.331 73.957,110.323 74.131,109.998 74.215 C 109.476 74.352,109.477 86.500,110.000 86.500 C 110.300 86.500,110.334 86.612,110.336 87.625 C 110.339 89.068,110.458 89.500,110.853 89.500 C 111.076 89.500,111.167 89.620,111.167 89.917 C 111.167 90.250,111.250 90.333,111.583 90.333 C 111.917 90.333,112.000 90.417,112.000 90.750 C 112.000 91.056,112.089 91.167,112.333 91.167 C 112.556 91.167,112.667 91.278,112.667 91.500 C 112.667 91.744,112.778 91.833,113.083 91.833 C 113.417 91.833,113.500 91.917,113.500 92.250 C 113.500 92.583,113.583 92.667,113.917 92.667 C 114.222 92.667,114.333 92.756,114.333 93.000 C 114.333 93.317,114.444 93.333,116.583 93.333 L 118.833 93.333 118.833 92.595 C 118.833 91.956,118.884 91.849,119.208 91.803 C 119.583 91.750,119.583 91.748,119.628 87.958 C 119.671 84.305,119.685 84.167,120.003 84.167 C 120.313 84.167,120.333 84.050,120.333 82.262 C 120.333 80.413,120.344 80.355,120.708 80.303 C 121.059 80.253,121.086 80.159,121.131 78.829 C 121.174 77.545,121.214 77.392,121.548 77.245 C 121.882 77.098,121.921 76.947,121.965 75.625 C 122.008 74.304,122.044 74.167,122.340 74.167 C 122.645 74.167,122.667 74.043,122.667 72.262 C 122.667 70.413,122.678 70.355,123.042 70.303 C 123.415 70.250,123.417 70.233,123.462 66.875 L 123.507 63.500 123.087 63.500 C 122.699 63.500,122.667 63.442,122.667 62.734 C 122.667 62.121,122.603 61.952,122.349 61.886 C 122.174 61.840,121.993 61.659,121.948 61.485 C 121.900 61.304,121.719 61.167,121.527 61.167 C 121.304 61.167,121.172 61.040,121.137 60.792 C 121.102 60.551,120.949 60.398,120.708 60.363 C 120.467 60.329,120.333 60.195,120.333 59.988 C 120.333 59.779,120.218 59.667,120.003 59.667 C 119.790 59.667,119.636 59.519,119.568 59.250 C 119.477 58.885,119.374 58.833,118.732 58.833 C 118.062 58.833,118.000 58.798,118.000 58.417 C 118.000 58.034,117.939 58.000,117.250 58.000 C 116.611 58.000,116.500 57.951,116.500 57.667 C 116.500 57.347,116.389 57.333,113.833 57.333 C 111.397 57.333,111.167 57.359,111.167 57.627 M181.112 69.403 C 180.926 69.888,180.333 69.832,180.333 69.329 C 180.333 68.966,180.420 68.844,180.708 68.803 C 181.089 68.749,181.263 69.008,181.112 69.403 M257.333 70.750 C 257.333 71.083,257.250 71.167,256.917 71.167 C 256.534 71.167,256.500 71.228,256.500 71.917 C 256.500 72.556,256.451 72.667,256.167 72.667 C 255.925 72.667,255.833 72.778,255.833 73.072 C 255.833 73.365,255.730 73.492,255.458 73.530 C 255.147 73.574,255.075 73.703,255.032 74.292 C 254.992 74.849,254.916 75.000,254.675 75.000 C 254.325 75.000,254.167 75.315,254.167 76.014 C 254.167 76.389,254.091 76.500,253.833 76.500 C 253.589 76.500,253.500 76.611,253.500 76.917 C 253.500 77.250,253.417 77.333,253.083 77.333 C 252.778 77.333,252.667 77.422,252.667 77.667 C 252.667 77.889,252.556 78.000,252.333 78.000 C 252.091 78.000,252.000 78.111,252.000 78.405 C 252.000 78.698,251.896 78.825,251.625 78.863 C 251.384 78.898,251.231 79.051,251.197 79.292 C 251.164 79.523,251.028 79.667,250.841 79.667 C 250.675 79.667,250.500 79.817,250.452 80.000 C 250.400 80.199,250.224 80.333,250.016 80.333 C 249.755 80.333,249.667 80.438,249.667 80.750 C 249.667 81.083,249.583 81.167,249.250 81.167 C 248.944 81.167,248.833 81.256,248.833 81.500 C 248.833 81.757,248.722 81.833,248.347 81.833 C 247.644 81.833,247.333 81.992,247.333 82.351 C 247.333 82.614,247.208 82.667,246.583 82.667 C 245.944 82.667,245.833 82.716,245.833 83.000 C 245.833 83.301,245.722 83.333,244.678 83.333 C 243.669 83.333,243.509 83.291,243.417 83.000 C 243.335 82.743,243.164 82.667,242.674 82.667 C 242.133 82.667,242.020 82.604,241.932 82.250 C 241.864 81.981,241.710 81.833,241.497 81.833 C 241.009 81.833,241.007 80.414,241.495 80.286 C 241.727 80.226,241.856 80.003,241.931 79.531 C 242.004 79.072,242.136 78.837,242.352 78.780 C 242.534 78.733,242.667 78.551,242.667 78.349 C 242.667 78.112,242.773 78.000,242.997 78.000 C 243.210 78.000,243.364 77.852,243.432 77.583 C 243.497 77.323,243.654 77.167,243.851 77.167 C 244.050 77.167,244.167 77.050,244.167 76.851 C 244.167 76.654,244.323 76.497,244.583 76.432 C 244.852 76.364,245.000 76.210,245.000 75.997 C 245.000 75.773,245.112 75.667,245.349 75.667 C 245.558 75.667,245.733 75.533,245.785 75.333 C 245.833 75.149,246.012 75.000,246.186 75.000 C 246.408 75.000,246.500 74.880,246.500 74.593 C 246.500 74.233,246.582 74.180,247.208 74.135 C 247.797 74.092,247.926 74.020,247.970 73.708 C 248.008 73.437,248.135 73.333,248.428 73.333 C 248.722 73.333,248.833 73.242,248.833 73.000 C 248.833 72.716,248.944 72.667,249.583 72.667 C 250.272 72.667,250.333 72.633,250.333 72.250 C 250.333 71.848,250.371 71.833,251.432 71.833 C 252.391 71.833,252.542 71.791,252.618 71.500 C 252.689 71.232,252.846 71.167,253.425 71.167 C 254.327 71.167,255.000 70.919,255.000 70.587 C 255.000 70.384,255.232 70.333,256.167 70.333 C 257.300 70.333,257.333 70.345,257.333 70.750 " stroke="none" fill="#2c2c2c" fill-rule="evenodd"></path><path id="path3" d="" stroke="none" fill="#609894" fill-rule="evenodd"></path><path id="path4" d="" stroke="none" fill="#602c98" fill-rule="evenodd"></path></g></svg>